<svg width="231" height="202" viewBox="0 0 231 202" fill="none" xmlns="http://www.w3.org/2000/svg">
<rect width="230" height="202" transform="translate(0.5)" fill="white"/>
<g clip-path="url(#clip0_965_119)">
<path d="M115.364 53.05C119.054 53.05 121.924 50.0643 121.924 46.4C121.924 42.7357 118.917 39.8857 115.227 39.8857C111.537 39.8857 108.667 42.8715 108.667 46.4C108.667 50.0643 111.674 53.05 115.364 53.05ZM115.227 42.6C115.364 42.6 115.364 42.6 115.227 42.6C117.414 42.6 119.19 44.3643 119.19 46.5357C119.19 48.7072 117.414 50.3357 115.227 50.3357C113.04 50.3357 111.4 48.5715 111.4 46.5357C111.4 44.3643 113.177 42.6 115.227 42.6Z" fill="#D0A144"/>
<path d="M135.59 52.2356C132.994 49.9284 129.577 48.707 126.024 48.8427H124.93C124.657 49.9284 124.247 50.8784 123.7 51.6927C124.52 51.557 125.204 51.557 126.024 51.557C128.62 51.4213 131.217 52.2356 133.267 53.7284V63.4999H136V52.6427L135.59 52.2356Z" fill="#D0A144"/>
<path d="M122.88 40.1572C123.563 38.5287 125.477 37.7144 127.253 38.3929C128.893 39.0715 129.713 40.9715 129.03 42.7358C128.483 43.9572 127.253 44.7715 126.023 44.7715C125.75 44.7715 125.34 44.7715 125.067 44.6358C125.203 45.3144 125.203 45.9929 125.203 46.5358V47.3501C125.477 47.3501 125.75 47.4858 126.023 47.4858C129.44 47.4858 132.173 44.7715 132.173 41.5144C132.173 38.1215 129.44 35.4072 126.16 35.4072C123.973 35.4072 122.06 36.4929 120.967 38.3929C121.65 38.8001 122.333 39.3429 122.88 40.1572Z" fill="#D0A144"/>
<path d="M107.3 51.8285C106.753 51.0142 106.343 50.0642 106.07 48.9785H104.977C101.423 48.8428 98.0067 50.0642 95.41 52.2356L95 52.6428V63.4999H97.7333V53.7285C99.92 52.2356 102.38 51.4214 104.977 51.5571C105.797 51.5571 106.617 51.6928 107.3 51.8285Z" fill="#D0A144"/>
<path d="M104.977 47.3499C105.25 47.3499 105.523 47.3499 105.797 47.2142V46.3999C105.797 45.7214 105.797 45.0428 105.933 44.4999C105.66 44.6357 105.25 44.6357 104.977 44.6357C103.2 44.6357 101.697 43.1428 101.697 41.3785C101.697 39.6142 103.2 38.1214 104.977 38.1214C106.343 38.1214 107.573 38.9357 108.12 40.1571C108.667 39.4785 109.487 38.7999 110.17 38.2571C108.393 35.4071 104.703 34.4571 101.833 36.2214C98.9633 37.9857 98.0066 41.6499 99.7833 44.4999C100.877 46.2642 102.79 47.3499 104.977 47.3499Z" fill="#D0A144"/>
<path d="M126.57 60.3783L126.296 59.9712C123.563 56.9855 119.736 55.2212 115.636 55.3569C111.536 55.2212 107.573 56.9855 104.84 59.9712L104.566 60.3783V70.6926C104.566 71.9141 105.523 72.9998 106.89 72.9998H124.383C125.613 72.9998 126.706 71.9141 126.706 70.6926V60.3783H126.57ZM123.836 70.2855H107.3V61.3283C109.486 59.1569 112.493 58.0712 115.636 58.0712C118.643 57.9355 121.65 59.1569 123.836 61.3283V70.2855Z" fill="#D0A144"/>
</g>
<path d="M62.22 121.28V104.84L56.86 105.68L56.34 103.32C57.5133 102.973 59.1933 102.32 61.38 101.36C63.5667 100.373 64.9267 99.68 65.46 99.28L67.1 99.6L67.02 121.28L72.02 121.88V124H56.74V121.88L62.22 121.28ZM79.7719 128.56C81.6652 124.853 83.5585 120.88 85.4519 116.64C87.3719 112.4 89.4385 107.653 91.6519 102.4L80.4519 102.88L78.7319 106.68L76.0119 106.52L76.8919 99.52H94.8119L95.6519 100.44L84.7319 130.32L79.7719 128.56ZM111.433 99.56C114.98 99.56 117.593 100.653 119.273 102.84C120.953 105 121.793 107.947 121.793 111.68C121.793 114.107 121.3 116.307 120.313 118.28C119.353 120.227 118.033 121.76 116.353 122.88C114.673 123.973 112.82 124.52 110.793 124.52C108.447 124.52 106.46 123.96 104.833 122.84C103.233 121.693 102.033 120.173 101.233 118.28C100.46 116.36 100.073 114.227 100.073 111.88C100.073 109.453 100.58 107.307 101.593 105.44C102.633 103.547 104.02 102.093 105.753 101.08C107.487 100.067 109.38 99.56 111.433 99.56ZM110.753 101.96C108.807 101.96 107.42 102.773 106.593 104.4C105.793 106.027 105.393 108.36 105.393 111.4C105.393 113.16 105.607 114.867 106.033 116.52C106.46 118.147 107.087 119.48 107.913 120.52C108.767 121.56 109.807 122.093 111.033 122.12C113.033 122.173 114.433 121.333 115.233 119.6C116.033 117.867 116.433 115.347 116.433 112.04C116.433 109.08 115.967 106.667 115.033 104.8C114.1 102.907 112.673 101.96 110.753 101.96ZM138.079 99.56C141.625 99.56 144.239 100.653 145.919 102.84C147.599 105 148.439 107.947 148.439 111.68C148.439 114.107 147.945 116.307 146.959 118.28C145.999 120.227 144.679 121.76 142.999 122.88C141.319 123.973 139.465 124.52 137.439 124.52C135.092 124.52 133.105 123.96 131.479 122.84C129.879 121.693 128.679 120.173 127.879 118.28C127.105 116.36 126.719 114.227 126.719 111.88C126.719 109.453 127.225 107.307 128.239 105.44C129.279 103.547 130.665 102.093 132.399 101.08C134.132 100.067 136.025 99.56 138.079 99.56ZM137.399 101.96C135.452 101.96 134.065 102.773 133.239 104.4C132.439 106.027 132.039 108.36 132.039 111.4C132.039 113.16 132.252 114.867 132.679 116.52C133.105 118.147 133.732 119.48 134.559 120.52C135.412 121.56 136.452 122.093 137.679 122.12C139.679 122.173 141.079 121.333 141.879 119.6C142.679 117.867 143.079 115.347 143.079 112.04C143.079 109.08 142.612 106.667 141.679 104.8C140.745 102.907 139.319 101.96 137.399 101.96ZM161.764 109.84L158.604 110H154.404V106.24H158.604L161.764 106.48L161.644 103.04V98.72H165.444V103.04L165.244 106.48L168.044 106.24H172.684V110H168.044L165.244 109.84L165.444 113.24V117.56H161.644V113.24L161.764 109.84Z" fill="#252B42"/>
<path d="M42.9809 163.928V153.896L40.3889 154.088L39.8449 155.528L38.8849 155.56L39.0769 152.872H48.7729V155.544L47.9569 155.64L47.4769 154.072L44.9489 153.896V163.912L46.8849 164.168V165H41.1089V164.168L42.9809 163.928ZM54.6384 152.76C55.993 152.76 57.049 153.005 57.8064 153.496C58.5744 153.987 58.9584 154.808 58.9584 155.96C58.9584 156.813 58.729 157.549 58.2704 158.168C57.8117 158.776 57.1717 159.219 56.3504 159.496C56.3824 159.507 56.4677 159.555 56.6064 159.64C56.9264 159.843 57.2197 160.147 57.4864 160.552C57.7637 160.957 58.105 161.517 58.5104 162.232C58.809 162.765 59.049 163.171 59.2304 163.448C59.4117 163.715 59.5824 163.875 59.7424 163.928L60.6544 164.168V165H58.0144C57.8437 165 57.6624 164.84 57.4704 164.52C57.2784 164.189 57.0224 163.672 56.7024 162.968C56.2544 161.976 55.849 161.203 55.4864 160.648C55.1344 160.093 54.7504 159.816 54.3344 159.816L53.1504 159.832V163.912L54.7344 164.168V165H49.7424V164.168L51.1664 163.912V154.056L49.9184 153.912V152.872H51.8704C52.0944 152.872 52.3077 152.867 52.5104 152.856C52.713 152.845 52.8997 152.835 53.0704 152.824C53.7317 152.781 54.2544 152.76 54.6384 152.76ZM54.3664 153.752C54.281 153.763 54.1637 153.768 54.0144 153.768C53.5877 153.789 53.2997 153.827 53.1504 153.88V158.808C53.3957 158.84 53.785 158.856 54.3184 158.856C55.193 158.856 55.8544 158.648 56.3024 158.232C56.7504 157.805 56.9744 157.123 56.9744 156.184C56.9744 155.395 56.761 154.787 56.3344 154.36C55.9184 153.933 55.2624 153.731 54.3664 153.752ZM72.7854 153.832L71.5854 153.992V159.688C71.5854 161.523 71.1907 162.904 70.4014 163.832C69.612 164.76 68.492 165.224 67.0414 165.224C65.3134 165.224 64.0547 164.787 63.2654 163.912C62.4867 163.037 62.0974 161.709 62.0974 159.928L62.1294 153.976L60.8814 153.832V152.872H65.4734V153.832L64.0974 153.992V159.992C64.0974 161.475 64.3747 162.547 64.9294 163.208C65.484 163.869 66.284 164.2 67.3294 164.2C69.2494 164.2 70.2094 162.696 70.2094 159.688L70.1934 153.992L68.8174 153.832V152.872H72.7854V153.832ZM78.0273 165.192C77.3233 165.192 76.5979 165.123 75.8513 164.984C75.1153 164.845 74.5926 164.691 74.2833 164.52V161.768H75.1473L75.7393 163.432C76.0059 163.741 76.3419 163.955 76.7473 164.072C77.1633 164.189 77.6379 164.248 78.1713 164.248C78.7793 164.248 79.2913 164.083 79.7073 163.752C80.1339 163.421 80.3473 162.941 80.3473 162.312C80.3473 161.811 80.1339 161.368 79.7073 160.984C79.2913 160.589 78.6833 160.168 77.8833 159.72C77.0833 159.293 76.4433 158.915 75.9633 158.584C75.4833 158.253 75.0886 157.869 74.7793 157.432C74.4699 156.984 74.3153 156.467 74.3153 155.88C74.3153 155.208 74.5073 154.637 74.8913 154.168C75.2859 153.699 75.7819 153.347 76.3793 153.112C76.9873 152.877 77.6059 152.76 78.2353 152.76C78.8753 152.76 79.5099 152.819 80.1393 152.936C80.7793 153.053 81.2433 153.187 81.5313 153.336V155.672H80.6193L79.9793 154.12C79.8193 153.981 79.5739 153.875 79.2433 153.8C78.9233 153.715 78.5926 153.672 78.2513 153.672C77.7179 153.672 77.2379 153.816 76.8113 154.104C76.3846 154.381 76.1713 154.808 76.1713 155.384C76.1713 155.949 76.4006 156.435 76.8593 156.84C77.3286 157.245 78.0379 157.699 78.9873 158.2C79.6699 158.563 80.2406 158.904 80.6993 159.224C81.1579 159.544 81.5366 159.923 81.8353 160.36C82.1339 160.787 82.2833 161.277 82.2833 161.832C82.2833 162.931 81.8779 163.768 81.0673 164.344C80.2673 164.909 79.2539 165.192 78.0273 165.192ZM87.459 163.928V153.896L84.867 154.088L84.323 155.528L83.363 155.56L83.555 152.872H93.251V155.544L92.435 155.64L91.955 154.072L89.427 153.896V163.912L91.363 164.168V165H85.587V164.168L87.459 163.928ZM95.6605 163.912V153.976L94.4445 153.832V152.872H102.829L103.053 155.256H101.933L101.437 153.976L97.6445 153.848V158.232L100.221 158.152L100.525 156.952H101.549V160.472H100.525L100.221 159.272L97.6445 159.224V164.008L101.837 163.832L102.701 162.248L103.757 162.472L103.389 165H94.4125V164.168L95.6605 163.912ZM106.338 163.912V153.976L105.122 153.832V152.872H107.362C107.789 152.872 108.312 152.851 108.93 152.808C109.069 152.797 109.272 152.787 109.538 152.776C109.805 152.765 110.05 152.76 110.274 152.76C112.226 152.76 113.698 153.267 114.69 154.28C115.682 155.293 116.178 156.733 116.178 158.6C116.178 159.912 115.917 161.059 115.394 162.04C114.872 163.021 114.146 163.773 113.218 164.296C112.301 164.819 111.25 165.08 110.066 165.08C109.81 165.08 109.416 165.069 108.882 165.048C108.424 165.016 107.928 165 107.394 165H105.09V164.168L106.338 163.912ZM108.322 163.832C108.76 164.003 109.298 164.088 109.938 164.088C110.13 164.088 110.28 164.083 110.386 164.072C111.09 164.04 111.72 163.821 112.274 163.416C112.84 163 113.282 162.419 113.602 161.672C113.922 160.925 114.082 160.056 114.082 159.064C114.082 157.325 113.725 156.013 113.01 155.128C112.306 154.232 111.298 153.784 109.986 153.784C109.304 153.784 108.749 153.837 108.322 153.944V163.832ZM127.72 152.76C128.264 152.76 128.76 152.803 129.208 152.888C129.656 152.973 130.12 153.08 130.6 153.208L130.984 153.304L130.84 155.832H129.736L129.256 154.44C129 154.237 128.718 154.093 128.408 154.008C128.11 153.912 127.683 153.864 127.128 153.864C126.414 153.864 125.768 154.067 125.192 154.472C124.627 154.877 124.179 155.453 123.848 156.2C123.518 156.936 123.352 157.795 123.352 158.776C123.352 159.747 123.502 160.648 123.8 161.48C124.11 162.301 124.558 162.963 125.144 163.464C125.742 163.955 126.456 164.2 127.288 164.2C128.44 164.2 129.198 163.928 129.56 163.384L130.072 162.056H131V164.488C130.83 164.499 130.547 164.568 130.152 164.696C129.651 164.856 129.155 164.984 128.664 165.08C128.184 165.176 127.624 165.224 126.984 165.224C125.864 165.224 124.867 164.979 123.992 164.488C123.118 163.997 122.435 163.309 121.944 162.424C121.454 161.528 121.208 160.499 121.208 159.336C121.208 158.067 121.502 156.931 122.088 155.928C122.675 154.925 123.464 154.147 124.456 153.592C125.459 153.037 126.547 152.76 127.72 152.76ZM133.904 163.928V154.072L132.704 153.944V152.872H137.296V153.944L135.92 154.088L135.904 163.976L139.568 163.752L140.656 161.88L141.536 162.264L141.008 165H132.672V164.168L133.904 163.928ZM143.928 163.912V153.976L142.504 153.832V152.872H147.272V153.832L145.912 153.976V163.912L147.368 164.168V165H142.488V164.168L143.928 163.912ZM150.167 163.912V153.976L148.951 153.832V152.872H157.335L157.559 155.256H156.439L155.943 153.976L152.151 153.848V158.232L154.727 158.152L155.031 156.952H156.055V160.472H155.031L154.727 159.272L152.151 159.224V164.008L156.343 163.832L157.207 162.248L158.263 162.472L157.895 165H148.919V164.168L150.167 163.912ZM171.373 153.928L170.157 154.072V165H168.013L163.197 157.24L162.205 155.08L162.221 163.896L163.757 164.168V165H159.549V164.168L160.845 163.896V154.088L159.597 153.944V152.872H162.812L167.837 161.272L168.781 163.304V154.088L167.469 153.928V152.872H171.373V153.928ZM176.406 163.928V153.896L173.814 154.088L173.27 155.528L172.31 155.56L172.502 152.872H182.198V155.544L181.382 155.64L180.902 154.072L178.374 153.896V163.912L180.31 164.168V165H174.534V164.168L176.406 163.928ZM187.455 165.192C186.751 165.192 186.026 165.123 185.279 164.984C184.543 164.845 184.021 164.691 183.711 164.52V161.768H184.575L185.167 163.432C185.434 163.741 185.77 163.955 186.175 164.072C186.591 164.189 187.066 164.248 187.599 164.248C188.207 164.248 188.719 164.083 189.135 163.752C189.562 163.421 189.775 162.941 189.775 162.312C189.775 161.811 189.562 161.368 189.135 160.984C188.719 160.589 188.111 160.168 187.311 159.72C186.511 159.293 185.871 158.915 185.391 158.584C184.911 158.253 184.517 157.869 184.207 157.432C183.898 156.984 183.743 156.467 183.743 155.88C183.743 155.208 183.935 154.637 184.319 154.168C184.714 153.699 185.21 153.347 185.807 153.112C186.415 152.877 187.034 152.76 187.663 152.76C188.303 152.76 188.938 152.819 189.567 152.936C190.207 153.053 190.671 153.187 190.959 153.336V155.672H190.047L189.407 154.12C189.247 153.981 189.002 153.875 188.671 153.8C188.351 153.715 188.021 153.672 187.679 153.672C187.146 153.672 186.666 153.816 186.239 154.104C185.813 154.381 185.599 154.808 185.599 155.384C185.599 155.949 185.829 156.435 186.287 156.84C186.757 157.245 187.466 157.699 188.415 158.2C189.098 158.563 189.669 158.904 190.127 159.224C190.586 159.544 190.965 159.923 191.263 160.36C191.562 160.787 191.711 161.277 191.711 161.832C191.711 162.931 191.306 163.768 190.495 164.344C189.695 164.909 188.682 165.192 187.455 165.192Z" fill="#737373"/>
<defs>
<clipPath id="clip0_965_119">
<rect width="41" height="38" fill="white" transform="translate(95 35)"/>
</clipPath>
</defs>
</svg>
