<svg width="330" height="77" viewBox="0 0 330 77" fill="none" xmlns="http://www.w3.org/2000/svg">
<g clip-path="url(#clip0_964_17534)">
<path fill-rule="evenodd" clip-rule="evenodd" d="M18.2367 8.77151C17.7729 9.09308 17.2497 9.31905 16.6976 9.43623C16.1456 9.55342 15.5757 9.55949 15.0212 9.45407C14.4668 9.34865 13.9389 9.13385 13.4684 8.82223C12.9979 8.5106 12.5941 8.10838 12.2807 7.63904C11.9673 7.1697 11.7505 6.64263 11.643 6.08861C11.5354 5.53458 11.5393 4.96468 11.6544 4.41218C11.7695 3.85967 11.9935 3.33562 12.3133 2.8706C12.6331 2.40559 13.0423 2.00893 13.517 1.70376C14.4544 1.08466 15.5986 0.861813 16.6998 1.08393C17.8009 1.30605 18.7693 1.95506 19.3933 2.88911C20.0173 3.82315 20.2462 4.96625 20.0298 6.06853C19.8135 7.17081 19.1696 8.14262 18.2388 8.77151H18.2367ZM17.0573 3.47176C16.8259 3.30528 16.5633 3.18706 16.2853 3.12415C16.0072 3.06124 15.7193 3.05493 15.4388 3.10558C15.1583 3.15622 14.8908 3.26281 14.6523 3.41897C14.4138 3.57514 14.2091 3.7777 14.0505 4.0146C13.8919 4.25149 13.7826 4.51788 13.7291 4.79789C13.6756 5.07791 13.679 5.36583 13.739 5.64451C13.7991 5.92319 13.9146 6.18694 14.0788 6.42004C14.2429 6.65315 14.4522 6.85086 14.6943 7.00139C15.162 7.28552 15.7214 7.37824 16.2558 7.26023C16.7902 7.14222 17.2585 6.82258 17.563 6.36789C17.8676 5.9132 17.985 5.35852 17.8908 4.81941C17.7966 4.2803 17.498 3.79833 17.0573 3.47389V3.47176ZM22.6036 3.53551C23.2164 3.12326 23.9539 2.93762 24.6889 3.01054C25.4239 3.08346 26.1105 3.41038 26.6304 3.93501C27.0009 4.30848 27.2741 4.76715 27.426 5.27079C27.578 5.77443 27.604 6.30766 27.5018 6.82371C27.3997 7.33975 27.1724 7.82284 26.8401 8.23061C26.5077 8.63838 26.0804 8.95837 25.5956 9.16251C25.0133 9.40598 24.3715 9.47011 23.7526 9.34669C23.1336 9.22328 22.5656 8.91794 22.1212 8.46976C21.7872 8.13405 21.5315 7.72865 21.3725 7.28259C21.2135 6.83653 21.155 6.36083 21.2013 5.88954C21.2476 5.41825 21.3975 4.96302 21.6403 4.55643C21.8831 4.14984 22.2127 3.80194 22.6057 3.53764L22.6036 3.53551ZM23.6236 6.95676C23.8231 7.15543 24.0933 7.2667 24.3749 7.2661C24.5143 7.2658 24.6523 7.23805 24.7809 7.18443C24.9096 7.13081 25.0265 7.05236 25.1249 6.95357C25.2232 6.85479 25.3012 6.73759 25.3543 6.60868C25.4073 6.47977 25.4345 6.34167 25.4342 6.20226C25.4339 6.06285 25.4062 5.92486 25.3525 5.79618C25.2989 5.66749 25.2205 5.55063 25.1217 5.45226C24.9238 5.25328 24.6564 5.13899 24.3758 5.13351C24.2357 5.13323 24.0968 5.16073 23.9674 5.21442C23.8379 5.26811 23.7204 5.34694 23.6216 5.44633C23.5228 5.54573 23.4447 5.66372 23.3918 5.7935C23.3388 5.92327 23.3122 6.06224 23.3133 6.20239C23.314 6.48539 23.4253 6.7569 23.6236 6.95889V6.95676ZM5.65455 25.3975H9.5008V27.5331H5.65455C4.98123 27.5271 4.3378 27.2542 3.8653 26.7745C3.39099 26.293 3.12533 25.6441 3.1258 24.9683V21.122C2.8397 21.1124 2.5585 21.045 2.29919 20.9237C2.03988 20.8025 1.80783 20.6299 1.61705 20.4165C1.41433 20.2112 1.25524 19.967 1.14934 19.6985C1.04343 19.4301 0.992909 19.1431 1.0008 18.8546V14.2179C1.00718 13.2149 1.40455 12.2565 2.1058 11.5446C2.80493 10.8413 3.75055 10.4396 4.7408 10.4333H8.6508C8.1234 11.0614 7.72612 11.788 7.48205 12.571H4.7408C4.30951 12.5834 3.89915 12.7597 3.5933 13.064C3.29287 13.3729 3.1251 13.787 3.1258 14.2179V18.9609H5.2508V24.9661C5.24587 25.024 5.25275 25.0823 5.27101 25.1375C5.28928 25.1926 5.31855 25.2435 5.35705 25.287C5.44247 25.353 5.54664 25.3902 5.65455 25.3933V25.3975ZM21.167 11.5468C20.8193 11.1957 20.4057 10.9167 19.9498 10.726C19.494 10.5353 19.0049 10.4365 18.5108 10.4354H13.2408C12.2502 10.4433 11.3029 10.8428 10.6058 11.5468C9.90455 12.2586 9.50718 13.217 9.5008 14.22V20.9733C9.4978 21.5531 9.71853 22.1118 10.1171 22.533C10.3081 22.7462 10.5402 22.9185 10.7994 23.0397C11.0587 23.161 11.3398 23.2286 11.6258 23.2385V28.1749C11.6238 28.5118 11.6885 28.8458 11.8161 29.1576C11.9438 29.4695 12.1319 29.7529 12.3696 29.9918C12.7521 30.3488 13.2344 30.5804 13.7508 30.6548H18.0008C18.5985 30.5763 19.1461 30.2797 19.5384 29.8219C19.9306 29.3642 20.1398 28.7776 20.1258 28.1749V23.2364C20.4119 23.2268 20.6931 23.1594 20.9524 23.0381C21.2117 22.9169 21.4438 22.7443 21.6346 22.5309C21.8371 22.3259 21.9961 22.082 22.102 21.814C22.2079 21.5459 22.2585 21.2592 22.2508 20.9711V14.2179C22.2523 13.2195 21.8633 12.2601 21.167 11.5446V11.5468ZM20.1258 21.0774H18.0008V28.1749C17.9987 28.2869 17.953 28.3937 17.8733 28.4724C17.837 28.5153 17.7913 28.5492 17.7396 28.5713C17.688 28.5935 17.6319 28.6032 17.5758 28.5999H14.1546C14.0435 28.5947 13.9384 28.5483 13.8598 28.4697C13.7812 28.3911 13.7347 28.2859 13.7296 28.1749V21.0774H11.6258V14.2179C11.6258 13.7865 11.7937 13.3721 12.0933 13.064C12.3992 12.7597 12.8095 12.5834 13.2408 12.571H18.5108C18.8327 12.5767 19.146 12.6762 19.4121 12.8574C19.6782 13.0386 19.8857 13.2936 20.0089 13.591C20.0898 13.7899 20.1296 14.0032 20.1258 14.2179V21.0774ZM26.0971 27.531H22.2508V25.3954H26.0758C26.1837 25.3924 26.2879 25.3552 26.3733 25.2891C26.4161 25.2473 26.4496 25.1969 26.4715 25.1413C26.4935 25.0856 26.5035 25.0259 26.5008 24.9661V18.9609H28.6258V14.2179C28.6265 13.787 28.4587 13.3729 28.1583 13.064C27.8524 12.7597 27.4421 12.5834 27.0108 12.571H24.2696C24.0256 11.788 23.6283 11.0613 23.1008 10.4333H27.0108C28.0012 10.4423 28.9481 10.8417 29.6458 11.5446C30.347 12.2565 30.7444 13.2149 30.7508 14.2179V18.8546C30.7508 19.4348 30.5319 19.9915 30.1367 20.4123C29.7414 20.8351 29.2017 21.088 28.6258 21.1199V24.9661C28.6258 25.644 28.3602 26.2921 27.8863 26.7724C27.4138 27.2521 26.7704 27.5249 26.0971 27.531ZM7.3758 2.99576C6.74346 2.99503 6.12531 3.18314 5.60057 3.536C5.07583 3.88885 4.66842 4.39037 4.43055 4.97626C4.19049 5.56195 4.12817 6.20536 4.25136 6.82623C4.37456 7.4471 4.67781 8.01797 5.1233 8.46764C5.56863 8.91678 6.13774 9.22298 6.75793 9.34712C7.37812 9.47126 8.02124 9.4077 8.60514 9.16456C9.18903 8.92142 9.68719 8.50975 10.036 7.98212C10.3848 7.45449 10.5684 6.83486 10.5633 6.20239C10.5633 5.35239 10.2276 4.53639 9.6283 3.93501C9.33323 3.63779 8.98233 3.40181 8.59577 3.24063C8.20921 3.07944 7.79462 2.99622 7.3758 2.99576ZM7.3758 7.27126C7.23565 7.27155 7.09684 7.24405 6.96739 7.19035C6.83793 7.13666 6.72041 7.05784 6.6216 6.95844C6.5228 6.85905 6.44468 6.74105 6.39176 6.61128C6.33885 6.48151 6.31218 6.34253 6.3133 6.20239C6.31385 5.92017 6.42577 5.64959 6.62473 5.44944C6.82368 5.24928 7.0936 5.13575 7.3758 5.13351C7.65714 5.13847 7.92548 5.25287 8.12386 5.45244C8.32223 5.652 8.43503 5.92102 8.4383 6.20239C8.43775 6.4846 8.32583 6.75519 8.12688 6.95534C7.92792 7.15549 7.658 7.26902 7.3758 7.27126Z" fill="#D0A144"/>
<path d="M55.696 8.264H58.32V9.4H55.744V12.968C55.744 13.7893 55.76 14.392 55.792 14.776C55.8347 15.16 55.9147 15.448 56.032 15.64C56.16 15.8213 56.368 15.912 56.656 15.912C56.88 15.912 57.152 15.8747 57.472 15.8C57.8027 15.7253 58.032 15.6453 58.16 15.56L58.48 16.328C58.2133 16.5947 57.8133 16.808 57.28 16.968C56.7573 17.1173 56.256 17.192 55.776 17.192C55.0933 17.192 54.5973 16.9947 54.288 16.6C53.9787 16.2053 53.824 15.5813 53.824 14.728V9.4H52.64V8.712C53.1413 8.584 53.472 8.488 53.632 8.424C53.8027 8.34933 53.952 8.21067 54.08 8.008C54.24 7.73067 54.4587 7.11733 54.736 6.168H55.696V8.264ZM60.9583 16.008V5.816L59.7102 5.48V4.632L62.5263 4.296L62.9262 4.456L62.9103 8.04L62.8303 9.208C63.2569 8.84533 63.7423 8.568 64.2863 8.376C64.8303 8.17333 65.3423 8.072 65.8223 8.072C66.5369 8.072 67.0809 8.22133 67.4542 8.52C67.8383 8.81867 68.0996 9.26133 68.2383 9.848C68.3769 10.4347 68.4409 11.2187 68.4303 12.2V16.008L69.5503 16.184V17H65.2143V16.184L66.4623 16.008V12.776C66.4623 11.944 66.4303 11.304 66.3663 10.856C66.3023 10.3973 66.1476 10.0453 65.9023 9.8C65.6569 9.544 65.2783 9.416 64.7663 9.416C64.0409 9.416 63.4276 9.59733 62.9262 9.96V16.008L63.9183 16.184V17H59.8062V16.184L60.9583 16.008ZM75.3691 7.992C76.3931 7.992 77.1878 8.296 77.7531 8.904C78.3291 9.512 78.6171 10.3653 78.6171 11.464C78.6171 11.9333 78.5798 12.376 78.5051 12.792H72.8571C72.8785 13.784 73.1291 14.5573 73.6091 15.112C74.0998 15.6667 74.7931 15.944 75.6891 15.944C76.0838 15.944 76.5051 15.9013 76.9531 15.816C77.4011 15.72 77.7638 15.6027 78.0411 15.464L78.3771 16.232C78.0358 16.5307 77.5398 16.7707 76.8891 16.952C76.2385 17.1227 75.5931 17.208 74.9531 17.208C73.6518 17.1973 72.6438 16.792 71.9291 15.992C71.2145 15.192 70.8571 14.104 70.8571 12.728C70.8571 11.8213 71.0491 11.0107 71.4331 10.296C71.8171 9.57067 72.3505 9.00533 73.0331 8.6C73.7158 8.19467 74.4945 7.992 75.3691 7.992ZM75.0011 8.936C74.4145 8.936 73.9291 9.176 73.5451 9.656C73.1718 10.136 72.9478 10.8293 72.8731 11.736H76.6171C76.6278 11.6187 76.6331 11.4427 76.6331 11.208C76.6331 10.4187 76.4625 9.864 76.1211 9.544C75.9078 9.13867 75.5345 8.936 75.0011 8.936ZM88.6388 7.992C88.9694 7.992 89.3001 8.02933 89.6307 8.104C89.9721 8.168 90.2441 8.25333 90.4468 8.36L91.4548 8.056L91.7908 8.232V19.96L92.8308 20.136V21H88.2708V20.136L89.8228 19.976V17.368L89.8867 16.248C89.6307 16.504 89.2894 16.728 88.8628 16.92C88.4361 17.112 87.9561 17.208 87.4227 17.208C86.8041 17.208 86.2227 17.0693 85.6787 16.792C85.1454 16.5147 84.7027 16.04 84.3507 15.368C83.9987 14.696 83.8227 13.8107 83.8227 12.712C83.8227 11.8267 84.0307 11.0267 84.4467 10.312C84.8627 9.58667 85.4334 9.02133 86.1587 8.616C86.8947 8.2 87.7214 7.992 88.6388 7.992ZM88.4467 8.968C87.6041 8.968 86.9534 9.27733 86.4947 9.896C86.0467 10.5147 85.8227 11.4107 85.8227 12.584C85.8227 13.6293 86.0201 14.4507 86.4147 15.048C86.8094 15.6453 87.3694 15.944 88.0947 15.944C88.4787 15.944 88.8147 15.8907 89.1027 15.784C89.4014 15.6667 89.6414 15.5227 89.8228 15.352V9.512C89.5454 9.14933 89.0867 8.968 88.4467 8.968ZM93.8759 9.336V8.6L96.2439 8.072L96.5639 8.216V13.608C96.5639 14.44 96.6652 15.0373 96.8679 15.4C97.0812 15.752 97.4812 15.928 98.0679 15.928C98.4092 15.928 98.7612 15.8533 99.1239 15.704C99.4972 15.5547 99.7692 15.4 99.9399 15.24V9.768L98.9639 9.416V8.616L101.572 8.072L101.86 8.2V16.184H102.788V16.888C102.628 16.984 102.367 17.0693 102.004 17.144C101.641 17.2187 101.327 17.256 101.06 17.256C100.772 17.256 100.543 17.192 100.372 17.064C100.212 16.9467 100.132 16.7653 100.132 16.52V15.992C99.7585 16.3547 99.3212 16.6427 98.8199 16.856C98.3185 17.0693 97.8385 17.176 97.3799 17.176C96.6119 17.176 96.0305 17.0373 95.6359 16.76C95.2519 16.472 94.9959 16.0773 94.8679 15.576C94.7399 15.0747 94.6705 14.4133 94.6599 13.592V9.688L93.8759 9.336ZM106.371 3.896C106.766 3.896 107.064 4.00267 107.267 4.216C107.48 4.41867 107.587 4.696 107.587 5.048C107.587 5.44267 107.443 5.768 107.155 6.024C106.867 6.28 106.531 6.408 106.147 6.408C105.816 6.408 105.528 6.30133 105.283 6.088C105.048 5.87467 104.931 5.59733 104.931 5.256C104.931 4.88267 105.08 4.56267 105.379 4.296C105.678 4.02933 106.008 3.896 106.371 3.896ZM107.411 8.232V16.008L108.627 16.184V17H104.259V16.184L105.491 16.008V10.168L104.435 9.4V8.824L106.947 8.072L107.411 8.232ZM114.371 8.024C114.808 8.00267 115.256 8.02933 115.715 8.104C116.184 8.17867 116.531 8.28 116.755 8.408V10.52H115.763L115.283 9.352C115.016 9.14933 114.622 9.048 114.099 9.048C113.406 9.048 112.84 9.336 112.403 9.912C111.976 10.488 111.763 11.2667 111.763 12.248C111.763 13.0373 111.886 13.7093 112.131 14.264C112.387 14.8187 112.723 15.2347 113.139 15.512C113.555 15.7893 114.008 15.928 114.499 15.928C114.904 15.928 115.32 15.8853 115.747 15.8C116.174 15.704 116.494 15.5867 116.707 15.448L117.043 16.232C116.702 16.5307 116.238 16.7653 115.651 16.936C115.075 17.096 114.451 17.176 113.779 17.176C112.958 17.176 112.248 16.9893 111.651 16.616C111.054 16.2427 110.595 15.7253 110.275 15.064C109.966 14.392 109.811 13.6293 109.811 12.776C109.811 11.8373 110.008 11.016 110.403 10.312C110.798 9.59733 111.336 9.04267 112.019 8.648C112.712 8.25333 113.496 8.04533 114.371 8.024ZM119.533 15.992V5.912L118.173 5.528V4.68L121.117 4.296L121.501 4.488V11.496L121.421 12.648L124.557 9.368L123.293 9.24V8.216H127.437V9.24L126.109 9.368L123.741 11.736L126.813 16.024L127.789 16.184V17H123.677V16.184L124.621 15.992L122.509 12.808L121.437 13.928L121.485 15.128V16.024L122.541 16.184V17H118.333V16.184L119.533 15.992ZM133.739 15.992V9.512H132.123V8.824L133.739 8.312V7.608C133.739 6.89333 133.91 6.23733 134.251 5.64C134.603 5.032 135.046 4.552 135.579 4.2C136.113 3.848 136.646 3.672 137.179 3.672C137.489 3.672 137.761 3.69333 137.995 3.736C138.241 3.768 138.411 3.81067 138.507 3.864V5.448C138.369 5.37333 138.145 5.304 137.835 5.24C137.537 5.16533 137.243 5.128 136.955 5.128C136.646 5.128 136.401 5.176 136.219 5.272C136.049 5.35733 135.921 5.528 135.835 5.784C135.75 6.02933 135.707 6.39733 135.707 6.888V8.264H138.059V9.512H135.707V16.008L137.531 16.184V17H132.283V16.184L133.739 15.992ZM143.611 7.992C144.934 7.992 145.942 8.39733 146.635 9.208C147.328 10.008 147.675 11.08 147.675 12.424C147.675 13.3627 147.488 14.1947 147.115 14.92C146.742 15.6347 146.23 16.1947 145.579 16.6C144.928 16.9947 144.192 17.192 143.371 17.192C141.995 17.192 140.955 16.7707 140.251 15.928C139.547 15.0747 139.195 13.9653 139.195 12.6C139.195 11.6613 139.392 10.8453 139.787 10.152C140.182 9.45867 140.71 8.92533 141.371 8.552C142.043 8.17867 142.79 7.992 143.611 7.992ZM143.451 8.952C142.011 8.952 141.291 10.0933 141.291 12.376C141.291 13.4213 141.472 14.3173 141.835 15.064C142.198 15.8107 142.736 16.1893 143.451 16.2C144.23 16.2107 144.779 15.9013 145.099 15.272C145.43 14.6427 145.595 13.7413 145.595 12.568C145.595 11.4907 145.419 10.6213 145.067 9.96C144.726 9.288 144.187 8.952 143.451 8.952ZM149.713 15.992L152.257 12.776L149.569 9.448L148.529 9.288V8.264H152.801V9.288L151.857 9.448L152.929 11.048L153.505 11.864L153.777 11.4L155.153 9.432L154.081 9.288V8.264H157.905V9.288L156.609 9.48L154.177 12.504L156.945 16.008L157.953 16.184V17H153.745V16.184L154.657 15.992L153.585 14.488L152.897 13.56L152.641 14.04L151.297 15.976L152.609 16.184V17H148.513V16.184L149.713 15.992ZM164.464 3.736C164.859 3.736 165.157 3.84267 165.36 4.056C165.573 4.25867 165.68 4.536 165.68 4.888C165.68 5.28267 165.536 5.608 165.248 5.864C164.971 6.12 164.635 6.248 164.24 6.248C163.909 6.248 163.627 6.14133 163.392 5.928C163.157 5.71467 163.04 5.43733 163.04 5.096C163.04 4.72267 163.189 4.40267 163.488 4.136C163.787 3.86933 164.112 3.736 164.464 3.736ZM165.584 8.248V17.208C165.584 18.4027 165.328 19.3467 164.816 20.04C164.304 20.744 163.6 21.096 162.704 21.096C162.523 21.096 162.304 21.0747 162.048 21.032C161.803 21 161.648 20.9627 161.584 20.92V19.704C161.648 19.7253 161.776 19.7413 161.968 19.752C162.171 19.7733 162.336 19.784 162.464 19.784C162.923 19.784 163.232 19.5707 163.392 19.144C163.563 18.728 163.648 18.024 163.648 17.032V10.168L162.64 9.384V8.84L165.136 8.072L165.584 8.248ZM167.704 9.336V8.6L170.072 8.072L170.392 8.216V13.608C170.392 14.44 170.493 15.0373 170.696 15.4C170.909 15.752 171.309 15.928 171.896 15.928C172.237 15.928 172.589 15.8533 172.952 15.704C173.325 15.5547 173.597 15.4 173.768 15.24V9.768L172.792 9.416V8.616L175.4 8.072L175.688 8.2V16.184H176.616V16.888C176.456 16.984 176.195 17.0693 175.832 17.144C175.469 17.2187 175.155 17.256 174.888 17.256C174.6 17.256 174.371 17.192 174.2 17.064C174.04 16.9467 173.96 16.7653 173.96 16.52V15.992C173.587 16.3547 173.149 16.6427 172.648 16.856C172.147 17.0693 171.667 17.176 171.208 17.176C170.44 17.176 169.859 17.0373 169.464 16.76C169.08 16.472 168.824 16.0773 168.696 15.576C168.568 15.0747 168.499 14.4133 168.488 13.592V9.688L167.704 9.336ZM179.225 16.008V10.104L178.137 9.448V8.776L180.521 8.072L180.953 8.216V9.352C181.305 9.01067 181.769 8.71733 182.345 8.472C182.921 8.216 183.459 8.08267 183.961 8.072C184.558 8.04 185.049 8.11467 185.433 8.296C185.827 8.46667 186.121 8.77067 186.313 9.208C186.718 8.87733 187.214 8.60533 187.801 8.392C188.387 8.17867 188.942 8.072 189.465 8.072C190.403 8.072 191.07 8.376 191.465 8.984C191.87 9.58133 192.073 10.52 192.073 11.8V16.008L193.305 16.184V17H189.097V16.184L190.105 16.008V12.104C190.105 11.4427 190.062 10.9253 189.977 10.552C189.891 10.1787 189.726 9.90133 189.481 9.72C189.246 9.53867 188.899 9.448 188.441 9.448C188.131 9.448 187.817 9.50133 187.497 9.608C187.177 9.704 186.873 9.84267 186.585 10.024C186.681 10.4187 186.729 10.9627 186.729 11.656V16.008L187.897 16.184V17H183.609V16.184L184.761 15.992V12.008C184.761 11.3893 184.713 10.8987 184.617 10.536C184.531 10.1627 184.371 9.89067 184.137 9.72C183.902 9.53867 183.566 9.448 183.129 9.448C182.83 9.448 182.51 9.50133 182.169 9.608C181.827 9.71467 181.507 9.88 181.209 10.104V16.008L182.313 16.184V17H178.201V16.184L179.225 16.008ZM200.034 7.992C201.079 7.992 201.916 8.36 202.546 9.096C203.186 9.832 203.506 10.9147 203.506 12.344C203.506 13.2293 203.303 14.0453 202.898 14.792C202.503 15.528 201.954 16.1093 201.25 16.536C200.556 16.9627 199.772 17.176 198.898 17.176C198.492 17.176 198.044 17.1173 197.554 17L197.618 18.792V19.992L199.186 20.168V21H194.61V20.168L195.666 19.976V10.104L194.578 9.448V8.776L196.946 8.072L197.362 8.216V9.176C197.586 8.86667 197.948 8.59467 198.45 8.36C198.962 8.11467 199.49 7.992 200.034 7.992ZM199.218 9.16C198.876 9.16 198.567 9.23467 198.29 9.384C198.012 9.53333 197.783 9.69867 197.602 9.88L197.618 15.528C197.724 15.72 197.916 15.8747 198.194 15.992C198.482 16.0987 198.812 16.152 199.186 16.152C199.623 16.152 200.023 16.0133 200.386 15.736C200.748 15.448 201.031 15.032 201.234 14.488C201.447 13.944 201.554 13.2933 201.554 12.536C201.554 11.448 201.335 10.616 200.898 10.04C200.46 9.45333 199.9 9.16 199.218 9.16ZM206.332 14.616L206.732 15.544C207.02 15.8 207.286 15.9867 207.532 16.104C207.777 16.2107 208.081 16.264 208.444 16.264C208.966 16.264 209.377 16.1573 209.676 15.944C209.974 15.72 210.124 15.3947 210.124 14.968C210.113 14.648 209.964 14.3867 209.676 14.184C209.398 13.9813 208.961 13.7467 208.364 13.48L207.964 13.304C207.164 12.92 206.54 12.5093 206.092 12.072C205.644 11.6347 205.42 11.096 205.42 10.456C205.42 9.92267 205.59 9.46933 205.932 9.096C206.273 8.72267 206.705 8.44533 207.228 8.264C207.761 8.08267 208.305 7.992 208.86 7.992C209.329 7.992 209.804 8.04533 210.284 8.152C210.764 8.248 211.148 8.36533 211.436 8.504V10.36H210.524L210.156 9.448C209.782 9.05333 209.356 8.856 208.876 8.856C208.417 8.856 208.044 8.952 207.756 9.144C207.478 9.32533 207.34 9.60267 207.34 9.976C207.34 10.2533 207.43 10.4987 207.612 10.712C207.804 10.9147 208.017 11.08 208.252 11.208C208.497 11.336 208.918 11.544 209.516 11.832C210.07 12.088 210.508 12.3173 210.828 12.52C211.158 12.7227 211.436 12.984 211.66 13.304C211.884 13.6133 211.996 13.9973 211.996 14.456C211.996 15.352 211.649 16.0347 210.956 16.504C210.262 16.9627 209.377 17.192 208.3 17.192C207.809 17.192 207.302 17.128 206.78 17C206.268 16.8827 205.82 16.7173 205.436 16.504V14.616H206.332ZM221.527 7.992C222.849 7.992 223.857 8.39733 224.551 9.208C225.244 10.008 225.591 11.08 225.591 12.424C225.591 13.3627 225.404 14.1947 225.031 14.92C224.657 15.6347 224.145 16.1947 223.495 16.6C222.844 16.9947 222.108 17.192 221.287 17.192C219.911 17.192 218.871 16.7707 218.167 15.928C217.463 15.0747 217.111 13.9653 217.111 12.6C217.111 11.6613 217.308 10.8453 217.703 10.152C218.097 9.45867 218.625 8.92533 219.287 8.552C219.959 8.17867 220.705 7.992 221.527 7.992ZM221.367 8.952C219.927 8.952 219.207 10.0933 219.207 12.376C219.207 13.4213 219.388 14.3173 219.751 15.064C220.113 15.8107 220.652 16.1893 221.367 16.2C222.145 16.2107 222.695 15.9013 223.015 15.272C223.345 14.6427 223.511 13.7413 223.511 12.568C223.511 11.4907 223.335 10.6213 222.983 9.96C222.641 9.288 222.103 8.952 221.367 8.952ZM226.413 9.288V8.264H230.237V9.288L229.373 9.48L230.925 13.448L231.549 15.416L232.125 13.496L233.485 9.464L232.493 9.288V8.264H235.917V9.288L235.053 9.496L231.981 17.128H230.493L227.181 9.448L226.413 9.288ZM241.26 7.992C242.284 7.992 243.078 8.296 243.644 8.904C244.22 9.512 244.508 10.3653 244.508 11.464C244.508 11.9333 244.47 12.376 244.396 12.792H238.748C238.769 13.784 239.02 14.5573 239.5 15.112C239.99 15.6667 240.684 15.944 241.58 15.944C241.974 15.944 242.396 15.9013 242.844 15.816C243.292 15.72 243.654 15.6027 243.932 15.464L244.268 16.232C243.926 16.5307 243.43 16.7707 242.78 16.952C242.129 17.1227 241.484 17.208 240.844 17.208C239.542 17.1973 238.534 16.792 237.82 15.992C237.105 15.192 236.748 14.104 236.748 12.728C236.748 11.8213 236.94 11.0107 237.324 10.296C237.708 9.57067 238.241 9.00533 238.924 8.6C239.606 8.19467 240.385 7.992 241.26 7.992ZM240.892 8.936C240.305 8.936 239.82 9.176 239.436 9.656C239.062 10.136 238.838 10.8293 238.764 11.736H242.508C242.518 11.6187 242.524 11.4427 242.524 11.208C242.524 10.4187 242.353 9.864 242.012 9.544C241.798 9.13867 241.425 8.936 240.892 8.936ZM247.347 16.008V10.104L246.243 9.448V8.776L248.611 8.072L249.059 8.216V9.544C249.23 9.192 249.576 8.86133 250.099 8.552C250.632 8.232 251.123 8.072 251.571 8.072C251.976 8.072 252.238 8.09333 252.355 8.136V10.056C251.971 9.864 251.512 9.768 250.979 9.768C250.318 9.768 249.768 9.912 249.331 10.2V15.976L251.395 16.184V17H246.195V16.184L247.347 16.008ZM260.134 8.264H262.758V9.4H260.182V12.968C260.182 13.7893 260.198 14.392 260.23 14.776C260.272 15.16 260.352 15.448 260.47 15.64C260.598 15.8213 260.806 15.912 261.094 15.912C261.318 15.912 261.59 15.8747 261.91 15.8C262.24 15.7253 262.47 15.6453 262.598 15.56L262.918 16.328C262.651 16.5947 262.251 16.808 261.718 16.968C261.195 17.1173 260.694 17.192 260.214 17.192C259.531 17.192 259.035 16.9947 258.726 16.6C258.416 16.2053 258.262 15.5813 258.262 14.728V9.4H257.078V8.712C257.579 8.584 257.91 8.488 258.07 8.424C258.24 8.34933 258.39 8.21067 258.518 8.008C258.678 7.73067 258.896 7.11733 259.174 6.168H260.134V8.264ZM265.396 16.008V5.816L264.148 5.48V4.632L266.964 4.296L267.364 4.456L267.348 8.04L267.268 9.208C267.694 8.84533 268.18 8.568 268.724 8.376C269.268 8.17333 269.78 8.072 270.26 8.072C270.974 8.072 271.518 8.22133 271.892 8.52C272.276 8.81867 272.537 9.26133 272.676 9.848C272.814 10.4347 272.878 11.2187 272.868 12.2V16.008L273.988 16.184V17H269.652V16.184L270.9 16.008V12.776C270.9 11.944 270.868 11.304 270.804 10.856C270.74 10.3973 270.585 10.0453 270.34 9.8C270.094 9.544 269.716 9.416 269.204 9.416C268.478 9.416 267.865 9.59733 267.364 9.96V16.008L268.356 16.184V17H264.244V16.184L265.396 16.008ZM279.807 7.992C280.831 7.992 281.625 8.296 282.191 8.904C282.767 9.512 283.055 10.3653 283.055 11.464C283.055 11.9333 283.017 12.376 282.943 12.792H277.295C277.316 13.784 277.567 14.5573 278.047 15.112C278.537 15.6667 279.231 15.944 280.127 15.944C280.521 15.944 280.943 15.9013 281.391 15.816C281.839 15.72 282.201 15.6027 282.479 15.464L282.815 16.232C282.473 16.5307 281.977 16.7707 281.327 16.952C280.676 17.1227 280.031 17.208 279.391 17.208C278.089 17.1973 277.081 16.792 276.367 15.992C275.652 15.192 275.295 14.104 275.295 12.728C275.295 11.8213 275.487 11.0107 275.871 10.296C276.255 9.57067 276.788 9.00533 277.471 8.6C278.153 8.19467 278.932 7.992 279.807 7.992ZM279.439 8.936C278.852 8.936 278.367 9.176 277.983 9.656C277.609 10.136 277.385 10.8293 277.311 11.736H281.055C281.065 11.6187 281.071 11.4427 281.071 11.208C281.071 10.4187 280.9 9.864 280.559 9.544C280.345 9.13867 279.972 8.936 279.439 8.936ZM289.476 16.008V5.816L288.308 5.48V4.632L291.076 4.296L291.444 4.456V15.992L292.836 16.184V17H288.292V16.184L289.476 16.008ZM297.795 8.072C298.83 8.072 299.63 8.30133 300.195 8.76C300.76 9.21867 301.043 9.98667 301.043 11.064V16.184H302.035V16.824C301.843 16.9413 301.592 17.032 301.283 17.096C300.974 17.1707 300.67 17.208 300.371 17.208C299.987 17.208 299.71 17.1333 299.539 16.984C299.368 16.824 299.278 16.568 299.267 16.216C298.68 16.8773 297.854 17.208 296.787 17.208C296.243 17.208 295.758 17.1067 295.331 16.904C294.904 16.6907 294.574 16.3973 294.339 16.024C294.104 15.6507 293.987 15.2293 293.987 14.76C293.987 14.056 294.248 13.4747 294.771 13.016C295.294 12.5573 295.944 12.2267 296.723 12.024C297.502 11.8107 298.286 11.704 299.075 11.704V11.224C299.075 10.4987 298.91 9.992 298.579 9.704C298.248 9.416 297.758 9.272 297.107 9.272C296.755 9.272 296.355 9.33067 295.907 9.448C295.459 9.56533 295.07 9.71467 294.739 9.896L294.371 9.016C294.734 8.71733 295.251 8.488 295.923 8.328C296.606 8.15733 297.23 8.072 297.795 8.072ZM299.075 12.664C298.275 12.664 297.555 12.808 296.915 13.096C296.286 13.384 295.971 13.8427 295.971 14.472C295.971 15.5067 296.52 16.024 297.619 16.024C297.875 16.024 298.136 15.9707 298.403 15.864C298.68 15.7573 298.899 15.6293 299.059 15.48L299.075 12.664ZM310.635 9.016L306.379 15L305.531 16.072L309.179 15.864L309.675 14.552H310.699L310.587 17H303.371L303.067 16.312L303.739 15.32L307.643 9.896L308.299 9.16L304.907 9.288L304.411 10.776H303.435V8.264H310.363L310.635 9.016ZM312.352 19.416C312.608 19.4907 312.88 19.5227 313.168 19.512C313.637 19.512 314.075 19.3147 314.48 18.92C314.885 18.5253 315.216 17.88 315.472 16.984H315.088L311.984 9.464L311.216 9.288V8.264H315.184V9.288L314.144 9.464L315.856 14.328L316.24 15.608L316.624 14.312L318.08 9.448L316.912 9.288V8.264H320.496V9.288L319.68 9.432C319.104 11.1067 318.528 12.712 317.952 14.248C317.376 15.784 316.981 16.8187 316.768 17.352C316.384 18.312 316.011 19.0587 315.648 19.592C315.285 20.1253 314.864 20.4933 314.384 20.696C314.053 20.9627 313.659 21.096 313.2 21.096C313.04 21.096 312.869 21.0853 312.688 21.064C312.517 21.0427 312.405 21.016 312.352 20.984V19.416ZM60.656 28.488V40.184H61.728V40.872C61.536 40.9787 61.264 41.0693 60.912 41.144C60.56 41.2187 60.1973 41.256 59.824 41.256C59.4827 41.256 59.2373 41.192 59.088 41.064C58.9387 40.936 58.8427 40.712 58.8 40.392C58.5653 40.6053 58.2133 40.7973 57.744 40.968C57.2853 41.128 56.7787 41.208 56.224 41.208C55.5733 41.208 54.9813 41.032 54.448 40.68C53.9147 40.328 53.488 39.8213 53.168 39.16C52.8587 38.488 52.704 37.6933 52.704 36.776C52.704 35.8587 52.912 35.0373 53.328 34.312C53.7547 33.5867 54.3253 33.0213 55.04 32.616C55.7653 32.2 56.56 31.992 57.424 31.992C57.904 31.992 58.3253 32.0453 58.688 32.152V29.816L56.992 29.48V28.632L60.24 28.296L60.656 28.488ZM57.216 32.92C56.7893 32.92 56.384 33.0533 56 33.32C55.616 33.5867 55.3013 33.9813 55.056 34.504C54.8213 35.0267 54.704 35.6613 54.704 36.408C54.704 37.1333 54.8053 37.7733 55.008 38.328C55.2107 38.8827 55.488 39.3093 55.84 39.608C56.2027 39.9067 56.608 40.056 57.056 40.056C57.376 40.056 57.68 40.0133 57.968 39.928C58.2667 39.8427 58.512 39.72 58.704 39.56V33.416C58.3307 33.0853 57.8347 32.92 57.216 32.92ZM67.4548 31.992C68.7774 31.992 69.7854 32.3973 70.4788 33.208C71.1721 34.008 71.5188 35.08 71.5188 36.424C71.5188 37.3627 71.3321 38.1947 70.9588 38.92C70.5854 39.6347 70.0734 40.1947 69.4228 40.6C68.7721 40.9947 68.0361 41.192 67.2148 41.192C65.8388 41.192 64.7988 40.7707 64.0948 39.928C63.3908 39.0747 63.0388 37.9653 63.0388 36.6C63.0388 35.6613 63.2361 34.8453 63.6308 34.152C64.0254 33.4587 64.5534 32.9253 65.2148 32.552C65.8868 32.1787 66.6334 31.992 67.4548 31.992ZM67.2948 32.952C65.8548 32.952 65.1348 34.0933 65.1348 36.376C65.1348 37.4213 65.3161 38.3173 65.6788 39.064C66.0414 39.8107 66.5801 40.1893 67.2948 40.2C68.0734 40.2107 68.6228 39.9013 68.9428 39.272C69.2734 38.6427 69.4388 37.7413 69.4388 36.568C69.4388 35.4907 69.2628 34.6213 68.9108 33.96C68.5694 33.288 68.0308 32.952 67.2948 32.952ZM77.141 31.96C78.133 31.96 78.9277 32.1787 79.525 32.616C79.7383 32.2747 80.213 32.104 80.949 32.104H81.797V33.544H80.245C80.4263 33.9067 80.517 34.3387 80.517 34.84C80.517 35.512 80.3517 36.088 80.021 36.568C79.6903 37.048 79.2477 37.4107 78.693 37.656C78.1383 37.8907 77.5197 38.008 76.837 38.008C76.2823 38.008 75.765 37.9333 75.285 37.784C75.221 37.9547 75.189 38.1307 75.189 38.312C75.189 38.4933 75.189 38.5947 75.189 38.616C75.189 38.9147 75.269 39.1387 75.429 39.288C75.5997 39.4373 75.8663 39.5173 76.229 39.528C76.581 39.5493 77.2317 39.56 78.181 39.56C79.461 39.56 80.3357 39.7787 80.805 40.216C81.2743 40.6533 81.509 41.2667 81.509 42.056C81.509 42.696 81.317 43.2453 80.933 43.704C80.549 44.1733 80.0157 44.5307 79.333 44.776C78.661 45.0213 77.8877 45.144 77.013 45.144C75.893 45.144 74.9703 44.9627 74.245 44.6C73.5197 44.2373 73.157 43.6453 73.157 42.824C73.157 42.3867 73.285 41.976 73.541 41.592C73.8077 41.2187 74.1223 40.9253 74.485 40.712C74.2077 40.616 74.005 40.4987 73.877 40.36C73.749 40.2107 73.669 40.0613 73.637 39.912C73.6157 39.752 73.605 39.5493 73.605 39.304C73.605 39.08 73.701 38.7867 73.893 38.424C74.085 38.0507 74.3197 37.7413 74.597 37.496C73.701 36.984 73.253 36.1893 73.253 35.112C73.253 34.4187 73.4343 33.8373 73.797 33.368C74.1597 32.8987 74.6343 32.5467 75.221 32.312C75.8077 32.0773 76.4477 31.96 77.141 31.96ZM76.837 32.872C76.3357 32.872 75.9357 33.0213 75.637 33.32C75.3383 33.6187 75.189 34.0773 75.189 34.696C75.189 35.3893 75.3383 35.9493 75.637 36.376C75.9357 36.8027 76.405 37.016 77.045 37.016C77.6103 37.016 78.0157 36.8453 78.261 36.504C78.5063 36.1627 78.629 35.6613 78.629 35C78.629 33.5813 78.0317 32.872 76.837 32.872ZM75.317 40.904C75.0717 41.256 74.949 41.6987 74.949 42.232C74.949 42.872 75.173 43.3467 75.621 43.656C76.069 43.976 76.6397 44.136 77.333 44.136C78.1437 44.136 78.757 44.008 79.173 43.752C79.5997 43.496 79.813 43.0907 79.813 42.536C79.813 42.1627 79.7543 41.864 79.637 41.64C79.5197 41.416 79.3117 41.2507 79.013 41.144C78.7143 41.0373 78.2877 40.984 77.733 40.984L76.613 40.968C76.0583 40.968 75.6263 40.9467 75.317 40.904Z" fill="#252B42"/>
<path d="M57.1133 70H54.9941V61.7695H52.2803V60.0059H59.8271V61.7695H57.1133V70ZM68.4559 70H66.3709V65.5361C66.3709 64.4333 65.9607 63.8818 65.1404 63.8818C64.5571 63.8818 64.1355 64.0801 63.8758 64.4766C63.616 64.873 63.4861 65.5156 63.4861 66.4043V70H61.4012V59.3633H63.4861V61.5303C63.4861 61.6989 63.4702 62.0954 63.4383 62.7197L63.3904 63.335H63.4998C63.9646 62.5876 64.7029 62.2139 65.7146 62.2139C66.6124 62.2139 67.2937 62.4554 67.7586 62.9385C68.2234 63.4215 68.4559 64.1143 68.4559 65.0166V70ZM70.7135 60.3818C70.7135 59.7028 71.0917 59.3633 71.8482 59.3633C72.6048 59.3633 72.983 59.7028 72.983 60.3818C72.983 60.7054 72.8873 60.9583 72.6959 61.1406C72.509 61.3184 72.2265 61.4072 71.8482 61.4072C71.0917 61.4072 70.7135 61.0654 70.7135 60.3818ZM72.8873 70H70.8023V62.3574H72.8873V70ZM82.3363 70H80.2514V65.5361C80.2514 64.9847 80.1534 64.5723 79.9574 64.2988C79.7615 64.0208 79.4493 63.8818 79.0209 63.8818C78.4376 63.8818 78.016 64.0778 77.7563 64.4697C77.4965 64.8571 77.3666 65.502 77.3666 66.4043V70H75.2816V62.3574H76.8744L77.1547 63.335H77.2709C77.5033 62.9658 77.8223 62.6878 78.2279 62.501C78.6381 62.3096 79.1029 62.2139 79.6225 62.2139C80.5111 62.2139 81.1856 62.4554 81.6459 62.9385C82.1062 63.417 82.3363 64.1097 82.3363 65.0166V70ZM91.3342 62.3574V63.417L90.1379 63.7246C90.3566 64.0664 90.466 64.4492 90.466 64.873C90.466 65.6934 90.1789 66.3337 89.6047 66.7939C89.035 67.2497 88.2421 67.4775 87.2258 67.4775L86.8498 67.457L86.5422 67.4229C86.328 67.5869 86.2209 67.7692 86.2209 67.9697C86.2209 68.2705 86.6037 68.4209 87.3693 68.4209H88.6682C89.5067 68.4209 90.1447 68.6009 90.5822 68.9609C91.0243 69.321 91.2453 69.8496 91.2453 70.5469C91.2453 71.4401 90.8716 72.1328 90.1242 72.625C89.3814 73.1172 88.3127 73.3633 86.9182 73.3633C85.8518 73.3633 85.036 73.1764 84.4709 72.8027C83.9104 72.4336 83.6301 71.9141 83.6301 71.2441C83.6301 70.7839 83.7736 70.3988 84.0607 70.0889C84.3479 69.779 84.7694 69.5579 85.3254 69.4258C85.1112 69.3346 84.9243 69.1865 84.7648 68.9814C84.6053 68.7718 84.5256 68.5508 84.5256 68.3184C84.5256 68.0267 84.6099 67.7852 84.7785 67.5938C84.9471 67.3978 85.1909 67.2064 85.51 67.0195C85.1089 66.8464 84.7899 66.5684 84.5529 66.1855C84.3205 65.8027 84.2043 65.3516 84.2043 64.832C84.2043 63.998 84.4755 63.3532 85.0178 62.8975C85.5601 62.4417 86.3348 62.2139 87.342 62.2139C87.5562 62.2139 87.8091 62.2344 88.1008 62.2754C88.397 62.3118 88.5861 62.3392 88.6682 62.3574H91.3342ZM85.4348 71.0801C85.4348 71.3672 85.5715 71.5928 85.8449 71.7568C86.1229 71.9209 86.5103 72.0029 87.007 72.0029C87.7544 72.0029 88.34 71.9004 88.7639 71.6953C89.1877 71.4902 89.3996 71.21 89.3996 70.8545C89.3996 70.5674 89.2743 70.3691 89.0236 70.2598C88.773 70.1504 88.3856 70.0957 87.8615 70.0957H86.7814C86.3986 70.0957 86.0773 70.1846 85.8176 70.3623C85.5624 70.5446 85.4348 70.7839 85.4348 71.0801ZM86.1936 64.8594C86.1936 65.2741 86.287 65.6022 86.4738 65.8438C86.6652 66.0853 86.9546 66.2061 87.342 66.2061C87.7339 66.2061 88.021 66.0853 88.2033 65.8438C88.3856 65.6022 88.4768 65.2741 88.4768 64.8594C88.4768 63.9388 88.0985 63.4785 87.342 63.4785C86.5764 63.4785 86.1936 63.9388 86.1936 64.8594ZM98.1309 67.7305C98.1309 68.5143 97.8574 69.1113 97.3105 69.5215C96.7682 69.9316 95.9548 70.1367 94.8701 70.1367C94.3141 70.1367 93.8402 70.098 93.4482 70.0205C93.0563 69.9476 92.6895 69.8382 92.3477 69.6924V67.9697C92.735 68.152 93.1702 68.3047 93.6533 68.4277C94.141 68.5508 94.5693 68.6123 94.9385 68.6123C95.695 68.6123 96.0732 68.3936 96.0732 67.9561C96.0732 67.792 96.0231 67.6598 95.9229 67.5596C95.8226 67.4548 95.6494 67.3385 95.4033 67.2109C95.1572 67.0788 94.8291 66.9261 94.4189 66.7529C93.8311 66.5068 93.3981 66.279 93.1201 66.0693C92.8467 65.8597 92.6462 65.6204 92.5186 65.3516C92.3955 65.0781 92.334 64.7432 92.334 64.3467C92.334 63.6676 92.596 63.1436 93.1201 62.7744C93.6488 62.4007 94.3962 62.2139 95.3623 62.2139C96.2829 62.2139 97.1784 62.4144 98.0488 62.8154L97.4199 64.3193C97.0371 64.1553 96.6794 64.0208 96.3467 63.916C96.014 63.8112 95.6745 63.7588 95.3281 63.7588C94.7129 63.7588 94.4053 63.9251 94.4053 64.2578C94.4053 64.4447 94.5033 64.6064 94.6992 64.7432C94.8997 64.8799 95.335 65.0827 96.0049 65.3516C96.6019 65.5931 97.0394 65.8187 97.3174 66.0283C97.5954 66.238 97.8005 66.4795 97.9326 66.7529C98.0648 67.0264 98.1309 67.3522 98.1309 67.7305ZM105.456 66.165C105.456 66.9215 105.579 67.4935 105.825 67.8809C106.075 68.2682 106.481 68.4619 107.042 68.4619C107.598 68.4619 107.996 68.2705 108.238 67.8877C108.484 67.5003 108.607 66.9261 108.607 66.165C108.607 65.4085 108.484 64.8411 108.238 64.4629C107.992 64.0846 107.588 63.8955 107.028 63.8955C106.472 63.8955 106.071 64.0846 105.825 64.4629C105.579 64.8366 105.456 65.404 105.456 66.165ZM110.74 66.165C110.74 67.4092 110.412 68.3822 109.755 69.084C109.099 69.7858 108.185 70.1367 107.014 70.1367C106.281 70.1367 105.633 69.9772 105.073 69.6582C104.512 69.3346 104.082 68.8721 103.781 68.2705C103.48 67.6689 103.33 66.9671 103.33 66.165C103.33 64.9163 103.656 63.9456 104.307 63.2529C104.959 62.5602 105.875 62.2139 107.055 62.2139C107.789 62.2139 108.436 62.3734 108.997 62.6924C109.557 63.0114 109.988 63.4694 110.289 64.0664C110.589 64.6634 110.74 65.363 110.74 66.165ZM119.717 70H117.632V65.5361C117.632 64.9847 117.534 64.5723 117.338 64.2988C117.142 64.0208 116.83 63.8818 116.402 63.8818C115.818 63.8818 115.397 64.0778 115.137 64.4697C114.877 64.8571 114.747 65.502 114.747 66.4043V70H112.662V62.3574H114.255L114.536 63.335H114.652C114.884 62.9658 115.203 62.6878 115.609 62.501C116.019 62.3096 116.484 62.2139 117.003 62.2139C117.892 62.2139 118.566 62.4554 119.027 62.9385C119.487 63.417 119.717 64.1097 119.717 65.0166V70ZM130.754 70L130.351 68.9609H130.296C129.945 69.403 129.583 69.7106 129.209 69.8838C128.84 70.0524 128.357 70.1367 127.76 70.1367C127.026 70.1367 126.447 69.9271 126.023 69.5078C125.604 69.0885 125.395 68.4915 125.395 67.7168C125.395 66.9056 125.677 66.3086 126.242 65.9258C126.812 65.5384 127.669 65.3242 128.812 65.2832L130.139 65.2422V64.9072C130.139 64.1325 129.742 63.7451 128.949 63.7451C128.339 63.7451 127.621 63.9297 126.796 64.2988L126.105 62.8906C126.985 62.4303 127.96 62.2002 129.031 62.2002C130.057 62.2002 130.843 62.4235 131.39 62.8701C131.937 63.3167 132.21 63.9958 132.21 64.9072V70H130.754ZM130.139 66.459L129.332 66.4863C128.726 66.5046 128.275 66.6139 127.979 66.8145C127.682 67.015 127.534 67.3203 127.534 67.7305C127.534 68.3184 127.871 68.6123 128.546 68.6123C129.029 68.6123 129.414 68.4733 129.701 68.1953C129.993 67.9173 130.139 67.5482 130.139 67.0879V66.459ZM140.218 70L137.306 62.3574H139.487L140.963 66.7119C141.128 67.2633 141.23 67.7852 141.271 68.2773H141.312C141.335 67.8398 141.437 67.318 141.62 66.7119L143.089 62.3574H145.27L142.358 70H140.218ZM149.736 63.6973C149.294 63.6973 148.947 63.8385 148.697 64.1211C148.446 64.3991 148.302 64.7956 148.266 65.3105H151.192C151.183 64.7956 151.048 64.3991 150.788 64.1211C150.529 63.8385 150.178 63.6973 149.736 63.6973ZM150.03 70.1367C148.799 70.1367 147.838 69.7972 147.145 69.1182C146.452 68.4391 146.106 67.4775 146.106 66.2334C146.106 64.9528 146.425 63.9639 147.063 63.2666C147.705 62.5648 148.592 62.2139 149.722 62.2139C150.802 62.2139 151.643 62.5215 152.245 63.1367C152.846 63.752 153.147 64.6019 153.147 65.6865V66.6982H148.218C148.241 67.2907 148.416 67.7533 148.745 68.0859C149.073 68.4186 149.533 68.585 150.125 68.585C150.586 68.585 151.021 68.5371 151.431 68.4414C151.841 68.3457 152.27 68.193 152.716 67.9834V69.5967C152.352 69.779 151.962 69.9134 151.547 70C151.133 70.0911 150.627 70.1367 150.03 70.1367ZM159.308 62.2139C159.59 62.2139 159.825 62.2344 160.012 62.2754L159.855 64.2305C159.686 64.1849 159.481 64.1621 159.239 64.1621C158.574 64.1621 158.055 64.333 157.681 64.6748C157.312 65.0166 157.127 65.4951 157.127 66.1104V70H155.042V62.3574H156.621L156.929 63.6426H157.031C157.268 63.2142 157.587 62.8701 157.988 62.6104C158.394 62.346 158.834 62.2139 159.308 62.2139ZM160.506 62.3574H162.789L164.231 66.6572C164.354 67.0309 164.439 67.473 164.484 67.9834H164.525C164.576 67.514 164.674 67.0719 164.819 66.6572L166.234 62.3574H168.47L165.236 70.9775C164.94 71.7751 164.516 72.3721 163.965 72.7686C163.418 73.165 162.778 73.3633 162.044 73.3633C161.684 73.3633 161.331 73.3245 160.984 73.2471V71.5928C161.235 71.652 161.508 71.6816 161.805 71.6816C162.174 71.6816 162.495 71.5677 162.769 71.3398C163.047 71.1165 163.263 70.777 163.418 70.3213L163.541 69.9453L160.506 62.3574ZM178.939 67.7305C178.939 68.5143 178.666 69.1113 178.119 69.5215C177.576 69.9316 176.763 70.1367 175.678 70.1367C175.122 70.1367 174.648 70.098 174.256 70.0205C173.865 69.9476 173.498 69.8382 173.156 69.6924V67.9697C173.543 68.152 173.978 68.3047 174.462 68.4277C174.949 68.5508 175.378 68.6123 175.747 68.6123C176.503 68.6123 176.881 68.3936 176.881 67.9561C176.881 67.792 176.831 67.6598 176.731 67.5596C176.631 67.4548 176.458 67.3385 176.212 67.2109C175.965 67.0788 175.637 66.9261 175.227 66.7529C174.639 66.5068 174.206 66.279 173.928 66.0693C173.655 65.8597 173.454 65.6204 173.327 65.3516C173.204 65.0781 173.142 64.7432 173.142 64.3467C173.142 63.6676 173.404 63.1436 173.928 62.7744C174.457 62.4007 175.204 62.2139 176.171 62.2139C177.091 62.2139 177.987 62.4144 178.857 62.8154L178.228 64.3193C177.845 64.1553 177.488 64.0208 177.155 63.916C176.822 63.8112 176.483 63.7588 176.136 63.7588C175.521 63.7588 175.213 63.9251 175.213 64.2578C175.213 64.4447 175.311 64.6064 175.507 64.7432C175.708 64.8799 176.143 65.0827 176.813 65.3516C177.41 65.5931 177.848 65.8187 178.126 66.0283C178.404 66.238 178.609 66.4795 178.741 66.7529C178.873 67.0264 178.939 67.3522 178.939 67.7305ZM187.609 70H185.524V65.5361C185.524 64.9847 185.43 64.5723 185.244 64.2988C185.061 64.0208 184.772 63.8818 184.375 63.8818C183.842 63.8818 183.455 64.0778 183.213 64.4697C182.972 64.8617 182.851 65.5065 182.851 66.4043V70H180.766V62.3574H182.359L182.639 63.335H182.755C182.96 62.984 183.257 62.7106 183.644 62.5146C184.031 62.3141 184.476 62.2139 184.977 62.2139C186.121 62.2139 186.896 62.5876 187.301 63.335H187.486C187.691 62.9795 187.992 62.7038 188.388 62.5078C188.789 62.3118 189.24 62.2139 189.742 62.2139C190.607 62.2139 191.261 62.4372 191.704 62.8838C192.15 63.3258 192.373 64.0368 192.373 65.0166V70H190.282V65.5361C190.282 64.9847 190.188 64.5723 190.001 64.2988C189.819 64.0208 189.53 63.8818 189.133 63.8818C188.623 63.8818 188.24 64.0641 187.985 64.4287C187.734 64.7933 187.609 65.3721 187.609 66.165V70ZM199.573 70L199.17 68.9609H199.115C198.765 69.403 198.402 69.7106 198.029 69.8838C197.659 70.0524 197.176 70.1367 196.579 70.1367C195.846 70.1367 195.267 69.9271 194.843 69.5078C194.424 69.0885 194.214 68.4915 194.214 67.7168C194.214 66.9056 194.497 66.3086 195.062 65.9258C195.631 65.5384 196.488 65.3242 197.632 65.2832L198.958 65.2422V64.9072C198.958 64.1325 198.562 63.7451 197.769 63.7451C197.158 63.7451 196.44 63.9297 195.615 64.2988L194.925 62.8906C195.805 62.4303 196.78 62.2002 197.851 62.2002C198.876 62.2002 199.662 62.4235 200.209 62.8701C200.756 63.3167 201.029 63.9958 201.029 64.9072V70H199.573ZM198.958 66.459L198.152 66.4863C197.545 66.5046 197.094 66.6139 196.798 66.8145C196.502 67.015 196.354 67.3203 196.354 67.7305C196.354 68.3184 196.691 68.6123 197.365 68.6123C197.849 68.6123 198.234 68.4733 198.521 68.1953C198.812 67.9173 198.958 67.5482 198.958 67.0879V66.459ZM205.468 70H203.383V59.3633H205.468V70ZM209.947 70H207.862V59.3633H209.947V70ZM221.51 67.7305C221.51 68.5143 221.237 69.1113 220.69 69.5215C220.148 69.9316 219.334 70.1367 218.249 70.1367C217.693 70.1367 217.219 70.098 216.828 70.0205C216.436 69.9476 216.069 69.8382 215.727 69.6924V67.9697C216.114 68.152 216.55 68.3047 217.033 68.4277C217.52 68.5508 217.949 68.6123 218.318 68.6123C219.074 68.6123 219.453 68.3936 219.453 67.9561C219.453 67.792 219.402 67.6598 219.302 67.5596C219.202 67.4548 219.029 67.3385 218.783 67.2109C218.537 67.0788 218.208 66.9261 217.798 66.7529C217.21 66.5068 216.777 66.279 216.499 66.0693C216.226 65.8597 216.025 65.6204 215.898 65.3516C215.775 65.0781 215.713 64.7432 215.713 64.3467C215.713 63.6676 215.975 63.1436 216.499 62.7744C217.028 62.4007 217.775 62.2139 218.742 62.2139C219.662 62.2139 220.558 62.4144 221.428 62.8154L220.799 64.3193C220.416 64.1553 220.059 64.0208 219.726 63.916C219.393 63.8112 219.054 63.7588 218.707 63.7588C218.092 63.7588 217.785 63.9251 217.785 64.2578C217.785 64.4447 217.883 64.6064 218.079 64.7432C218.279 64.8799 218.714 65.0827 219.384 65.3516C219.981 65.5931 220.419 65.8187 220.697 66.0283C220.975 66.238 221.18 66.4795 221.312 66.7529C221.444 67.0264 221.51 67.3522 221.51 67.7305ZM226.441 70.1367C224.062 70.1367 222.872 68.8311 222.872 66.2197C222.872 64.9209 223.196 63.9297 223.843 63.2461C224.49 62.5579 225.418 62.2139 226.625 62.2139C227.509 62.2139 228.302 62.387 229.004 62.7334L228.389 64.3467C228.061 64.2145 227.755 64.1074 227.473 64.0254C227.19 63.9388 226.908 63.8955 226.625 63.8955C225.541 63.8955 224.998 64.6657 224.998 66.2061C224.998 67.7008 225.541 68.4482 226.625 68.4482C227.026 68.4482 227.398 68.3958 227.739 68.291C228.081 68.1816 228.423 68.013 228.765 67.7852V69.5693C228.428 69.7835 228.086 69.9316 227.739 70.0137C227.398 70.0957 226.965 70.1367 226.441 70.1367ZM235.596 70L235.192 68.9609H235.138C234.787 69.403 234.424 69.7106 234.051 69.8838C233.682 70.0524 233.199 70.1367 232.602 70.1367C231.868 70.1367 231.289 69.9271 230.865 69.5078C230.446 69.0885 230.236 68.4915 230.236 67.7168C230.236 66.9056 230.519 66.3086 231.084 65.9258C231.654 65.5384 232.51 65.3242 233.654 65.2832L234.98 65.2422V64.9072C234.98 64.1325 234.584 63.7451 233.791 63.7451C233.18 63.7451 232.463 63.9297 231.638 64.2988L230.947 62.8906C231.827 62.4303 232.802 62.2002 233.873 62.2002C234.898 62.2002 235.685 62.4235 236.231 62.8701C236.778 63.3167 237.052 63.9958 237.052 64.9072V70H235.596ZM234.98 66.459L234.174 66.4863C233.568 66.5046 233.117 66.6139 232.82 66.8145C232.524 67.015 232.376 67.3203 232.376 67.7305C232.376 68.3184 232.713 68.6123 233.388 68.6123C233.871 68.6123 234.256 68.4733 234.543 68.1953C234.835 67.9173 234.98 67.5482 234.98 67.0879V66.459ZM241.49 70H239.405V59.3633H241.49V70ZM247.049 63.6973C246.607 63.6973 246.261 63.8385 246.01 64.1211C245.76 64.3991 245.616 64.7956 245.58 65.3105H248.505C248.496 64.7956 248.362 64.3991 248.102 64.1211C247.842 63.8385 247.491 63.6973 247.049 63.6973ZM247.343 70.1367C246.113 70.1367 245.151 69.7972 244.459 69.1182C243.766 68.4391 243.42 67.4775 243.42 66.2334C243.42 64.9528 243.739 63.9639 244.377 63.2666C245.019 62.5648 245.906 62.2139 247.036 62.2139C248.116 62.2139 248.957 62.5215 249.558 63.1367C250.16 63.752 250.461 64.6019 250.461 65.6865V66.6982H245.532C245.555 67.2907 245.73 67.7533 246.058 68.0859C246.386 68.4186 246.847 68.585 247.439 68.585C247.899 68.585 248.335 68.5371 248.745 68.4414C249.155 68.3457 249.583 68.193 250.03 67.9834V69.5967C249.665 69.779 249.276 69.9134 248.861 70C248.446 70.0911 247.94 70.1367 247.343 70.1367ZM255.899 69.0225C255.899 68.6396 256.001 68.3503 256.206 68.1543C256.411 67.9583 256.71 67.8604 257.102 67.8604C257.48 67.8604 257.772 67.9606 257.977 68.1611C258.186 68.3617 258.291 68.6488 258.291 69.0225C258.291 69.3825 258.186 69.6673 257.977 69.877C257.767 70.082 257.475 70.1846 257.102 70.1846C256.719 70.1846 256.423 70.0843 256.213 69.8838C256.003 69.6787 255.899 69.3916 255.899 69.0225ZM260.091 69.0225C260.091 68.6396 260.193 68.3503 260.398 68.1543C260.604 67.9583 260.902 67.8604 261.294 67.8604C261.672 67.8604 261.964 67.9606 262.169 68.1611C262.379 68.3617 262.483 68.6488 262.483 69.0225C262.483 69.3825 262.379 69.6673 262.169 69.877C261.959 70.082 261.668 70.1846 261.294 70.1846C260.911 70.1846 260.615 70.0843 260.405 69.8838C260.196 69.6787 260.091 69.3916 260.091 69.0225ZM264.283 69.0225C264.283 68.6396 264.386 68.3503 264.591 68.1543C264.796 67.9583 265.094 67.8604 265.486 67.8604C265.864 67.8604 266.156 67.9606 266.361 68.1611C266.571 68.3617 266.676 68.6488 266.676 69.0225C266.676 69.3825 266.571 69.6673 266.361 69.877C266.151 70.082 265.86 70.1846 265.486 70.1846C265.103 70.1846 264.807 70.0843 264.597 69.8838C264.388 69.6787 264.283 69.3916 264.283 69.0225Z" fill="#737373"/>
</g>
<defs>
<clipPath id="clip0_964_17534">
<rect width="325" height="77" fill="white"/>
</clipPath>
</defs>
</svg>
