<svg width="231" height="202" viewBox="0 0 231 202" fill="none" xmlns="http://www.w3.org/2000/svg">
<rect width="230" height="202" transform="translate(0.5)" fill="white"/>
<g clip-path="url(#clip0_965_133)">
<path d="M117.322 68.0898H113.679C113.516 68.0898 113.361 68.0264 113.246 67.9135C113.131 67.8007 113.066 67.6477 113.066 67.4881V38.4293C113.066 37.7948 113.323 37.1864 113.779 36.7378C114.236 36.2891 114.855 36.0371 115.5 36.0371C116.146 36.0371 116.765 36.2891 117.221 36.7378C117.678 37.1864 117.934 37.7948 117.934 38.4293V67.4887C117.934 67.6482 117.87 67.8011 117.755 67.9137C117.64 68.0265 117.484 68.0898 117.322 68.0898ZM114.291 66.8865H116.71V38.4293C116.71 38.1139 116.583 37.8116 116.356 37.5886C116.129 37.3657 115.821 37.2404 115.5 37.2404C115.18 37.2404 114.872 37.3657 114.645 37.5886C114.418 37.8116 114.291 38.1139 114.291 38.4293V66.8865Z" fill="#D0A144"/>
<path d="M100.746 44.103H98.6449C98.1462 44.0942 97.6711 43.8934 97.3216 43.5437C96.9722 43.194 96.7764 42.7235 96.7764 42.2334C96.7764 41.7433 96.9722 41.2727 97.3216 40.9231C97.6711 40.5734 98.1462 40.3726 98.6449 40.3638H100.448C100.611 40.3638 100.766 40.4272 100.881 40.54C100.996 40.6528 101.06 40.8058 101.06 40.9654C101.06 41.125 100.996 41.278 100.881 41.3908C100.766 41.5037 100.611 41.5671 100.448 41.5671H98.6449C98.4686 41.5723 98.3013 41.6448 98.1785 41.7691C98.0556 41.8935 97.987 42.06 97.987 42.2334C97.987 42.4067 98.0556 42.5732 98.1785 42.6976C98.3013 42.822 98.4686 42.8945 98.6449 42.8997H100.746C100.909 42.8997 101.064 42.9631 101.179 43.0759C101.294 43.1888 101.359 43.3418 101.359 43.5013C101.359 43.6609 101.294 43.8139 101.179 43.9268C101.064 44.0396 100.909 44.103 100.746 44.103Z" fill="#D0A144"/>
<path d="M113.678 44.103H104.45C104.288 44.103 104.132 44.0396 104.017 43.9268C103.902 43.8139 103.838 43.6609 103.838 43.5013C103.838 43.3418 103.902 43.1888 104.017 43.0759C104.132 42.9631 104.288 42.8997 104.45 42.8997H113.066V41.5671H104.748C104.585 41.5671 104.43 41.5037 104.315 41.3908C104.2 41.278 104.135 41.125 104.135 40.9654C104.135 40.8058 104.2 40.6528 104.315 40.54C104.43 40.4272 104.585 40.3638 104.748 40.3638H113.678C113.841 40.3638 113.997 40.4272 114.111 40.54C114.226 40.6528 114.291 40.8058 114.291 40.9654V43.5013C114.291 43.6609 114.226 43.8139 114.111 43.9268C113.997 44.0396 113.841 44.103 113.678 44.103Z" fill="#D0A144"/>
<path d="M126.417 44.103H117.322C117.16 44.103 117.004 44.0396 116.889 43.9268C116.774 43.8139 116.71 43.6609 116.71 43.5013V40.9654C116.71 40.8058 116.774 40.6528 116.889 40.54C117.004 40.4272 117.16 40.3638 117.322 40.3638H126.12C126.282 40.3638 126.438 40.4272 126.552 40.54C126.667 40.6528 126.732 40.8058 126.732 40.9654C126.732 41.125 126.667 41.278 126.552 41.3908C126.438 41.5037 126.282 41.5671 126.12 41.5671H117.934V42.8997H126.417C126.579 42.8997 126.735 42.9631 126.85 43.0759C126.965 43.1888 127.029 43.3418 127.029 43.5013C127.029 43.6609 126.965 43.8139 126.85 43.9268C126.735 44.0396 126.579 44.103 126.417 44.103Z" fill="#D0A144"/>
<path d="M132.349 44.103H130.254C130.091 44.103 129.936 44.0396 129.821 43.9268C129.706 43.8139 129.642 43.6609 129.642 43.5013C129.642 43.3418 129.706 43.1888 129.821 43.0759C129.936 42.9631 130.091 42.8997 130.254 42.8997H132.349C132.526 42.8945 132.693 42.822 132.816 42.6976C132.938 42.5732 133.007 42.4067 133.007 42.2334C133.007 42.06 132.938 41.8935 132.816 41.7691C132.693 41.6448 132.526 41.5723 132.349 41.5671H130.556C130.393 41.5671 130.238 41.5037 130.123 41.3908C130.008 41.278 129.943 41.125 129.943 40.9654C129.943 40.8058 130.008 40.6528 130.123 40.54C130.238 40.4272 130.393 40.3638 130.556 40.3638H132.349C132.848 40.3726 133.323 40.5734 133.672 40.9231C134.022 41.2727 134.218 41.7433 134.218 42.2334C134.218 42.7235 134.022 43.194 133.672 43.5437C133.323 43.8934 132.848 44.0942 132.349 44.103Z" fill="#D0A144"/>
<path d="M123.253 71.9618H107.747C107.654 71.9617 107.562 71.9409 107.478 71.9008C107.395 71.8608 107.322 71.8026 107.265 71.7306C107.207 71.6587 107.168 71.5749 107.148 71.4856C107.129 71.3962 107.13 71.3038 107.153 71.2151C107.405 70.0253 108.055 68.9526 108.999 68.1676C109.944 67.3827 111.128 66.9306 112.364 66.8833H118.636C119.872 66.9306 121.056 67.3827 122 68.1676C122.944 68.9526 123.594 70.0253 123.847 71.2151C123.869 71.3038 123.871 71.3962 123.851 71.4856C123.832 71.5749 123.792 71.6587 123.735 71.7306C123.678 71.8026 123.604 71.8608 123.521 71.9008C123.437 71.9409 123.346 71.9617 123.253 71.9618ZM108.593 70.7585H122.406C122.115 69.9983 121.602 69.3395 120.931 68.8648C120.26 68.39 119.462 68.1203 118.636 68.0896H112.364C111.538 68.1203 110.739 68.39 110.069 68.8648C109.398 69.3395 108.885 69.9983 108.593 70.7585Z" fill="#D0A144"/>
<path d="M124.911 71.9621H106.09C105.927 71.9621 105.772 71.8987 105.657 71.7859C105.542 71.673 105.478 71.52 105.478 71.3604C105.478 71.2009 105.542 71.0478 105.657 70.935C105.772 70.8222 105.927 70.7588 106.09 70.7588H124.911C125.074 70.7588 125.229 70.8222 125.344 70.935C125.459 71.0478 125.524 71.2009 125.524 71.3604C125.524 71.52 125.459 71.673 125.344 71.7859C125.229 71.8987 125.074 71.9621 124.911 71.9621Z" fill="#D0A144"/>
<path d="M136.313 59.1882H120.494C120.392 59.1883 120.291 59.1631 120.201 59.1149C120.111 59.0667 120.035 58.9971 119.979 58.9124C119.924 58.8278 119.891 58.7307 119.883 58.6303C119.876 58.5298 119.894 58.4292 119.937 58.3375L126.658 43.7933C126.691 43.7212 126.739 43.6562 126.797 43.602C126.856 43.5478 126.925 43.5055 127.001 43.4776C127.076 43.4497 127.156 43.4367 127.237 43.4393C127.317 43.4419 127.396 43.4601 127.47 43.4928C127.543 43.5255 127.609 43.5722 127.664 43.63C127.719 43.6879 127.762 43.7558 127.79 43.8299C127.818 43.9041 127.831 43.983 127.828 44.0621C127.825 44.1412 127.807 44.2189 127.773 44.2909L121.445 57.9849H135.361L129.038 44.2909C129.005 44.2189 128.986 44.1412 128.984 44.0622C128.981 43.9832 128.994 43.9045 129.022 43.8305C129.051 43.7566 129.094 43.6888 129.149 43.6311C129.204 43.5734 129.269 43.5269 129.343 43.4943C129.416 43.4617 129.495 43.4435 129.575 43.4409C129.656 43.4383 129.736 43.4513 129.811 43.4791C129.886 43.507 129.955 43.5491 130.014 43.6031C130.073 43.6571 130.12 43.722 130.153 43.7939L136.868 58.3381C136.91 58.4295 136.929 58.5299 136.921 58.63C136.914 58.7301 136.881 58.8268 136.826 58.9113C136.771 58.9958 136.695 59.0654 136.606 59.1138C136.516 59.1622 136.416 59.1877 136.313 59.1882Z" fill="#D0A144"/>
<path d="M128.467 66.8625H128.339C123.438 66.8625 119.88 63.3826 119.88 58.5875C119.88 58.4279 119.944 58.2749 120.059 58.1621C120.174 58.0492 120.33 57.9858 120.492 57.9858H136.314C136.476 57.9858 136.632 58.0492 136.746 58.1621C136.861 58.2749 136.926 58.4279 136.926 58.5875C136.926 63.3856 133.368 66.8625 128.467 66.8625ZM121.126 59.1891C121.399 63.0288 124.287 65.6592 128.339 65.6592H128.467C132.518 65.6592 135.408 63.0288 135.68 59.1891H121.126Z" fill="#D0A144"/>
<path d="M128.404 44.9608C127.808 44.9609 127.226 44.7875 126.731 44.4626C126.236 44.1376 125.851 43.6757 125.623 43.1352C125.395 42.5948 125.335 42 125.451 41.4262C125.567 40.8524 125.854 40.3254 126.275 39.9117C126.696 39.498 127.232 39.2163 127.816 39.1022C128.4 38.9881 129.005 39.0467 129.555 39.2707C130.105 39.4946 130.575 39.8738 130.905 40.3603C131.236 40.8468 131.412 41.4187 131.412 42.0037C131.411 42.7877 131.094 43.5393 130.53 44.0936C129.966 44.648 129.201 44.9598 128.404 44.9608ZM128.404 40.2493C128.05 40.2492 127.705 40.352 127.412 40.5447C127.118 40.7374 126.889 41.0113 126.754 41.3319C126.619 41.6525 126.583 42.0052 126.652 42.3456C126.721 42.686 126.891 42.9986 127.141 43.244C127.39 43.4895 127.708 43.6566 128.054 43.7243C128.401 43.7921 128.76 43.7574 129.086 43.6246C129.412 43.4918 129.691 43.267 129.887 42.9785C130.083 42.6899 130.188 42.3507 130.188 42.0037C130.188 41.5387 129.999 41.0928 129.665 40.7639C129.33 40.435 128.877 40.2499 128.404 40.2493Z" fill="#D0A144"/>
<path d="M110.505 59.1884H94.6862C94.5838 59.1883 94.483 59.1631 94.3931 59.1148C94.3032 59.0666 94.227 58.997 94.1716 58.9123C94.1162 58.8277 94.0832 58.7307 94.0758 58.6303C94.0684 58.5299 94.0867 58.4293 94.1291 58.3376L100.852 43.7935C100.919 43.6481 101.042 43.5349 101.194 43.4788C101.346 43.4227 101.515 43.4282 101.663 43.4942C101.811 43.5602 101.926 43.6812 101.983 43.8306C102.04 43.9801 102.034 44.1457 101.967 44.2911L95.6387 57.9851H109.555L103.232 44.2911C103.197 44.2188 103.177 44.1405 103.173 44.0605C103.169 43.9806 103.181 43.9006 103.209 43.8254C103.237 43.7502 103.28 43.6812 103.335 43.6225C103.391 43.5638 103.457 43.5165 103.531 43.4834C103.606 43.4504 103.686 43.4322 103.767 43.4299C103.849 43.4277 103.93 43.4414 104.006 43.4704C104.081 43.4993 104.151 43.5428 104.209 43.5984C104.268 43.654 104.315 43.7205 104.347 43.7941L111.062 58.3382C111.105 58.4299 111.123 58.5305 111.115 58.6309C111.108 58.7312 111.075 58.8282 111.019 58.9127C110.964 58.9973 110.888 59.0669 110.798 59.115C110.708 59.1632 110.607 59.1884 110.505 59.1884Z" fill="#D0A144"/>
<path d="M102.66 66.8625H102.533C97.6321 66.8625 94.0742 63.3856 94.0742 58.5875C94.0742 58.4279 94.1387 58.2749 94.2535 58.1621C94.3683 58.0492 94.524 57.9858 94.6864 57.9858H110.508C110.67 57.9858 110.826 58.0492 110.941 58.1621C111.056 58.2749 111.12 58.4279 111.12 58.5875C111.12 63.3856 107.562 66.8625 102.66 66.8625ZM95.32 59.1891C95.5924 63.0288 98.4818 65.6592 102.533 65.6592H102.66C106.712 65.6592 109.601 63.0288 109.874 59.1891H95.32Z" fill="#D0A144"/>
<path d="M102.597 44.9608C102.002 44.9608 101.42 44.7873 100.925 44.4623C100.43 44.1373 100.045 43.6753 99.8169 43.1348C99.5892 42.5943 99.5296 41.9996 99.6458 41.4259C99.7619 40.8521 100.049 40.3251 100.47 39.9115C100.89 39.4979 101.427 39.2162 102.011 39.1022C102.594 38.9881 103.199 39.0468 103.749 39.2707C104.299 39.4947 104.769 39.8739 105.1 40.3603C105.43 40.8468 105.607 41.4187 105.607 42.0037C105.606 42.7878 105.288 43.5395 104.724 44.0938C104.16 44.6482 103.395 44.96 102.597 44.9608ZM102.597 40.2493C102.244 40.2493 101.899 40.3522 101.606 40.545C101.312 40.7377 101.083 41.0117 100.948 41.3323C100.813 41.6529 100.778 42.0056 100.847 42.346C100.915 42.6863 101.085 42.9989 101.335 43.2442C101.585 43.4896 101.903 43.6567 102.249 43.7244C102.595 43.7921 102.954 43.7573 103.28 43.6246C103.607 43.4918 103.885 43.2669 104.082 42.9784C104.278 42.6899 104.382 42.3507 104.382 42.0037C104.382 41.5386 104.194 41.0926 103.859 40.7637C103.524 40.4348 103.071 40.2498 102.597 40.2493Z" fill="#D0A144"/>
</g>
<path d="M76.42 129.8C78.8467 129.053 81.0067 127.747 82.9 125.88C84.82 124.04 86.3 121.933 87.34 119.56C88.4067 117.187 88.9667 114.893 89.02 112.68L89.06 111.32C89.06 108.44 88.6467 106.147 87.82 104.44C86.9933 102.707 85.54 101.84 83.46 101.84C81.8067 101.84 80.54 102.547 79.66 103.96C78.78 105.347 78.34 106.987 78.34 108.88C78.34 110.907 78.78 112.56 79.66 113.84C80.54 115.093 81.6467 115.72 82.98 115.72C83.6467 115.72 84.2867 115.627 84.9 115.44C85.5133 115.253 85.9933 115.027 86.34 114.76L87.26 116.44C86.7533 117.16 85.94 117.747 84.82 118.2C83.7267 118.627 82.5533 118.84 81.3 118.84C79.7 118.84 78.3133 118.453 77.14 117.68C75.9933 116.88 75.1267 115.84 74.54 114.56C73.9533 113.253 73.66 111.84 73.66 110.32C73.66 108.427 74.0867 106.653 74.94 105C75.82 103.347 77.0467 102.027 78.62 101.04C80.22 100.027 82.06 99.52 84.14 99.52C86.1933 99.52 87.9667 100.027 89.46 101.04C90.9533 102.053 92.1 103.427 92.9 105.16C93.7 106.867 94.1 108.76 94.1 110.84C94.1 114.173 93.3 117.373 91.7 120.44C90.1267 123.507 88.0467 126.067 85.46 128.12C82.9 130.173 80.22 131.453 77.42 131.96L76.42 129.8ZM109.618 93.6C111.191 93.6 112.618 93.88 113.898 94.44C115.205 95 116.231 95.8 116.978 96.84C117.725 97.88 118.098 99.0933 118.098 100.48C118.098 101.92 117.578 103.4 116.538 104.92C115.498 106.44 114.245 107.547 112.778 108.24C114.885 109.547 116.511 110.813 117.658 112.04C118.831 113.267 119.418 114.627 119.418 116.12C119.418 117.96 118.938 119.52 117.978 120.8C117.045 122.053 115.818 122.987 114.298 123.6C112.778 124.213 111.138 124.52 109.378 124.52C107.618 124.52 105.951 124.24 104.378 123.68C102.805 123.093 101.525 122.213 100.538 121.04C99.5781 119.867 99.0981 118.427 99.0981 116.72C99.0981 115.147 99.6448 113.64 100.738 112.2C101.831 110.76 103.351 109.6 105.298 108.72C103.805 107.653 102.645 106.52 101.818 105.32C100.991 104.12 100.578 102.747 100.578 101.2C100.578 99.5733 100.991 98.1867 101.818 97.04C102.671 95.8933 103.791 95.04 105.178 94.48C106.565 93.8933 108.045 93.6 109.618 93.6ZM109.378 95.8C108.125 95.8 107.018 96.2133 106.058 97.04C105.098 97.8667 104.618 98.92 104.618 100.2C104.618 101.373 105.138 102.48 106.178 103.52C107.218 104.56 108.671 105.653 110.538 106.8C111.551 106.373 112.378 105.627 113.018 104.56C113.685 103.493 114.018 102.36 114.018 101.16C114.018 99.6133 113.565 98.3333 112.658 97.32C111.778 96.3067 110.685 95.8 109.378 95.8ZM107.378 110.08C106.285 110.693 105.378 111.48 104.658 112.44C103.965 113.4 103.618 114.427 103.618 115.52C103.618 116.747 103.871 117.867 104.378 118.88C104.885 119.893 105.618 120.707 106.578 121.32C107.538 121.907 108.645 122.2 109.898 122.2C110.778 122.2 111.605 122 112.378 121.6C113.151 121.2 113.765 120.64 114.218 119.92C114.698 119.2 114.938 118.373 114.938 117.44C114.938 116.56 114.658 115.76 114.098 115.04C113.565 114.293 112.885 113.64 112.058 113.08C111.258 112.493 110.151 111.773 108.738 110.92L107.378 110.08ZM135.867 125.2H132.187L144.027 91.56H147.747L135.867 125.2ZM130.787 96.12C132.787 96.12 134.307 96.7867 135.347 98.12C136.413 99.4267 136.947 101.133 136.947 103.24C136.947 104.733 136.627 106.027 135.987 107.12C135.347 108.213 134.48 109.053 133.387 109.64C132.293 110.2 131.107 110.48 129.827 110.48C128.6 110.48 127.507 110.16 126.547 109.52C125.587 108.88 124.84 108.027 124.307 106.96C123.8 105.893 123.547 104.72 123.547 103.44C123.547 101.92 123.88 100.613 124.547 99.52C125.213 98.4 126.093 97.56 127.187 97C128.28 96.4133 129.48 96.12 130.787 96.12ZM130.267 98.44C129.333 98.44 128.613 98.8933 128.107 99.8C127.6 100.707 127.347 101.867 127.347 103.28C127.347 104.613 127.613 105.76 128.147 106.72C128.707 107.68 129.427 108.16 130.307 108.16C131.213 108.16 131.907 107.747 132.387 106.92C132.893 106.067 133.147 104.893 133.147 103.4C133.147 101.96 132.893 100.773 132.387 99.84C131.88 98.9067 131.173 98.44 130.267 98.44ZM150.467 106.44C152.467 106.44 153.987 107.107 155.027 108.44C156.093 109.747 156.627 111.453 156.627 113.56C156.627 115.053 156.307 116.347 155.667 117.44C155.027 118.533 154.16 119.373 153.067 119.96C152 120.52 150.827 120.8 149.547 120.8C148.293 120.8 147.187 120.48 146.227 119.84C145.267 119.2 144.52 118.347 143.987 117.28C143.48 116.213 143.227 115.04 143.227 113.76C143.227 112.24 143.56 110.933 144.227 109.84C144.893 108.72 145.773 107.88 146.867 107.32C147.96 106.733 149.16 106.44 150.467 106.44ZM150.027 108.76C149.067 108.76 148.333 109.213 147.827 110.12C147.32 111 147.067 112.16 147.067 113.6C147.067 114.933 147.347 116.08 147.907 117.04C148.467 118 149.173 118.48 150.027 118.48C150.96 118.48 151.667 118.067 152.147 117.24C152.653 116.387 152.907 115.213 152.907 113.72C152.907 112.28 152.64 111.093 152.107 110.16C151.6 109.227 150.907 108.76 150.027 108.76Z" fill="#252B42"/>
<path d="M37.6069 165.192C36.9029 165.192 36.1776 165.123 35.4309 164.984C34.6949 164.845 34.1723 164.691 33.8629 164.52V161.768H34.7269L35.3189 163.432C35.5856 163.741 35.9216 163.955 36.3269 164.072C36.7429 164.189 37.2176 164.248 37.7509 164.248C38.3589 164.248 38.8709 164.083 39.2869 163.752C39.7136 163.421 39.9269 162.941 39.9269 162.312C39.9269 161.811 39.7136 161.368 39.2869 160.984C38.8709 160.589 38.2629 160.168 37.4629 159.72C36.6629 159.293 36.0229 158.915 35.5429 158.584C35.0629 158.253 34.6683 157.869 34.3589 157.432C34.0496 156.984 33.8949 156.467 33.8949 155.88C33.8949 155.208 34.0869 154.637 34.4709 154.168C34.8656 153.699 35.3616 153.347 35.9589 153.112C36.5669 152.877 37.1856 152.76 37.8149 152.76C38.4549 152.76 39.0896 152.819 39.7189 152.936C40.3589 153.053 40.8229 153.187 41.1109 153.336V155.672H40.1989L39.5589 154.12C39.3989 153.981 39.1536 153.875 38.8229 153.8C38.5029 153.715 38.1723 153.672 37.8309 153.672C37.2976 153.672 36.8176 153.816 36.3909 154.104C35.9643 154.381 35.7509 154.808 35.7509 155.384C35.7509 155.949 35.9803 156.435 36.4389 156.84C36.9083 157.245 37.6176 157.699 38.5669 158.2C39.2496 158.563 39.8203 158.904 40.2789 159.224C40.7376 159.544 41.1163 159.923 41.4149 160.36C41.7136 160.787 41.8629 161.277 41.8629 161.832C41.8629 162.931 41.4576 163.768 40.6469 164.344C39.8469 164.909 38.8336 165.192 37.6069 165.192ZM54.8307 153.832L53.6307 153.992V159.688C53.6307 161.523 53.236 162.904 52.4467 163.832C51.6574 164.76 50.5374 165.224 49.0867 165.224C47.3587 165.224 46.1 164.787 45.3107 163.912C44.532 163.037 44.1427 161.709 44.1427 159.928L44.1747 153.976L42.9267 153.832V152.872H47.5187V153.832L46.1427 153.992V159.992C46.1427 161.475 46.42 162.547 46.9747 163.208C47.5294 163.869 48.3294 164.2 49.3747 164.2C51.2947 164.2 52.2547 162.696 52.2547 159.688L52.2387 153.992L50.8627 153.832V152.872H54.8307V153.832ZM62.3126 152.76C62.8566 152.76 63.3526 152.803 63.8006 152.888C64.2486 152.973 64.7126 153.08 65.1926 153.208L65.5766 153.304L65.4326 155.832H64.3286L63.8486 154.44C63.5926 154.237 63.3099 154.093 63.0006 154.008C62.7019 153.912 62.2752 153.864 61.7206 153.864C61.0059 153.864 60.3606 154.067 59.7846 154.472C59.2192 154.877 58.7712 155.453 58.4406 156.2C58.1099 156.936 57.9446 157.795 57.9446 158.776C57.9446 159.747 58.0939 160.648 58.3926 161.48C58.7019 162.301 59.1499 162.963 59.7366 163.464C60.3339 163.955 61.0486 164.2 61.8806 164.2C63.0326 164.2 63.7899 163.928 64.1526 163.384L64.6646 162.056H65.5926V164.488C65.4219 164.499 65.1392 164.568 64.7446 164.696C64.2432 164.856 63.7472 164.984 63.2566 165.08C62.7766 165.176 62.2166 165.224 61.5766 165.224C60.4566 165.224 59.4592 164.979 58.5846 164.488C57.7099 163.997 57.0272 163.309 56.5366 162.424C56.0459 161.528 55.8006 160.499 55.8006 159.336C55.8006 158.067 56.0939 156.931 56.6806 155.928C57.2672 154.925 58.0566 154.147 59.0486 153.592C60.0512 153.037 61.1392 152.76 62.3126 152.76ZM73.6001 152.76C74.1441 152.76 74.6401 152.803 75.0881 152.888C75.5361 152.973 76.0001 153.08 76.4801 153.208L76.8641 153.304L76.7201 155.832H75.6161L75.1361 154.44C74.8801 154.237 74.5974 154.093 74.2881 154.008C73.9894 153.912 73.5627 153.864 73.0081 153.864C72.2934 153.864 71.6481 154.067 71.0721 154.472C70.5067 154.877 70.0587 155.453 69.7281 156.2C69.3974 156.936 69.2321 157.795 69.2321 158.776C69.2321 159.747 69.3814 160.648 69.6801 161.48C69.9894 162.301 70.4374 162.963 71.0241 163.464C71.6214 163.955 72.3361 164.2 73.1681 164.2C74.3201 164.2 75.0774 163.928 75.4401 163.384L75.9521 162.056H76.8801V164.488C76.7094 164.499 76.4267 164.568 76.0321 164.696C75.5307 164.856 75.0347 164.984 74.5441 165.08C74.0641 165.176 73.5041 165.224 72.8641 165.224C71.7441 165.224 70.7467 164.979 69.8721 164.488C68.9974 163.997 68.3147 163.309 67.8241 162.424C67.3334 161.528 67.0881 160.499 67.0881 159.336C67.0881 158.067 67.3814 156.931 67.9681 155.928C68.5547 154.925 69.3441 154.147 70.3361 153.592C71.3387 153.037 72.4267 152.76 73.6001 152.76ZM79.7996 163.912V153.976L78.5836 153.832V152.872H86.9676L87.1916 155.256H86.0716L85.5756 153.976L81.7836 153.848V158.232L84.3596 158.152L84.6636 156.952H85.6876V160.472H84.6636L84.3596 159.272L81.7836 159.224V164.008L85.9756 163.832L86.8396 162.248L87.8956 162.472L87.5276 165H78.5516V164.168L79.7996 163.912ZM93.3413 165.192C92.6373 165.192 91.912 165.123 91.1653 164.984C90.4293 164.845 89.9066 164.691 89.5973 164.52V161.768H90.4613L91.0533 163.432C91.32 163.741 91.656 163.955 92.0613 164.072C92.4773 164.189 92.952 164.248 93.4853 164.248C94.0933 164.248 94.6053 164.083 95.0213 163.752C95.448 163.421 95.6613 162.941 95.6613 162.312C95.6613 161.811 95.448 161.368 95.0213 160.984C94.6053 160.589 93.9973 160.168 93.1973 159.72C92.3973 159.293 91.7573 158.915 91.2773 158.584C90.7973 158.253 90.4026 157.869 90.0933 157.432C89.784 156.984 89.6293 156.467 89.6293 155.88C89.6293 155.208 89.8213 154.637 90.2053 154.168C90.6 153.699 91.096 153.347 91.6933 153.112C92.3013 152.877 92.92 152.76 93.5493 152.76C94.1893 152.76 94.824 152.819 95.4533 152.936C96.0933 153.053 96.5573 153.187 96.8453 153.336V155.672H95.9333L95.2933 154.12C95.1333 153.981 94.888 153.875 94.5573 153.8C94.2373 153.715 93.9066 153.672 93.5653 153.672C93.032 153.672 92.552 153.816 92.1253 154.104C91.6986 154.381 91.4853 154.808 91.4853 155.384C91.4853 155.949 91.7146 156.435 92.1733 156.84C92.6426 157.245 93.352 157.699 94.3013 158.2C94.984 158.563 95.5546 158.904 96.0133 159.224C96.472 159.544 96.8506 159.923 97.1493 160.36C97.448 160.787 97.5973 161.277 97.5973 161.832C97.5973 162.931 97.192 163.768 96.3813 164.344C95.5813 164.909 94.568 165.192 93.3413 165.192ZM103.285 165.192C102.581 165.192 101.856 165.123 101.109 164.984C100.373 164.845 99.8504 164.691 99.5411 164.52V161.768H100.405L100.997 163.432C101.264 163.741 101.6 163.955 102.005 164.072C102.421 164.189 102.896 164.248 103.429 164.248C104.037 164.248 104.549 164.083 104.965 163.752C105.392 163.421 105.605 162.941 105.605 162.312C105.605 161.811 105.392 161.368 104.965 160.984C104.549 160.589 103.941 160.168 103.141 159.72C102.341 159.293 101.701 158.915 101.221 158.584C100.741 158.253 100.346 157.869 100.037 157.432C99.7277 156.984 99.5731 156.467 99.5731 155.88C99.5731 155.208 99.7651 154.637 100.149 154.168C100.544 153.699 101.04 153.347 101.637 153.112C102.245 152.877 102.864 152.76 103.493 152.76C104.133 152.76 104.768 152.819 105.397 152.936C106.037 153.053 106.501 153.187 106.789 153.336V155.672H105.877L105.237 154.12C105.077 153.981 104.832 153.875 104.501 153.8C104.181 153.715 103.85 153.672 103.509 153.672C102.976 153.672 102.496 153.816 102.069 154.104C101.642 154.381 101.429 154.808 101.429 155.384C101.429 155.949 101.658 156.435 102.117 156.84C102.586 157.245 103.296 157.699 104.245 158.2C104.928 158.563 105.498 158.904 105.957 159.224C106.416 159.544 106.794 159.923 107.093 160.36C107.392 160.787 107.541 161.277 107.541 161.832C107.541 162.931 107.136 163.768 106.325 164.344C105.525 164.909 104.512 165.192 103.285 165.192ZM110.365 163.944V153.976L109.117 153.832V152.872H117.709L117.885 155.272L116.893 155.288L116.461 154.04L112.349 153.912V158.36L115.357 158.28L115.741 157.128H116.653V160.648H115.629L115.373 159.448L112.349 159.4V163.896L114.685 164.072V165H109.101V164.168L110.365 163.944ZM130.515 153.832L129.315 153.992V159.688C129.315 161.523 128.92 162.904 128.131 163.832C127.342 164.76 126.222 165.224 124.771 165.224C123.043 165.224 121.784 164.787 120.995 163.912C120.216 163.037 119.827 161.709 119.827 159.928L119.859 153.976L118.611 153.832V152.872H123.203V153.832L121.827 153.992V159.992C121.827 161.475 122.104 162.547 122.659 163.208C123.214 163.869 124.014 164.2 125.059 164.2C126.979 164.2 127.939 162.696 127.939 159.688L127.923 153.992L126.547 153.832V152.872H130.515V153.832ZM132.893 163.928V154.072L131.693 153.944V152.872H136.285V153.944L134.909 154.088L134.893 163.976L138.557 163.752L139.645 161.88L140.525 162.264L139.997 165H131.661V164.168L132.893 163.928ZM151.603 152.76C152.147 152.76 152.643 152.803 153.091 152.888C153.539 152.973 154.003 153.08 154.483 153.208L154.867 153.304L154.723 155.832H153.619L153.139 154.44C152.883 154.237 152.601 154.093 152.291 154.008C151.993 153.912 151.566 153.864 151.011 153.864C150.297 153.864 149.651 154.067 149.075 154.472C148.51 154.877 148.062 155.453 147.731 156.2C147.401 156.936 147.235 157.795 147.235 158.776C147.235 159.747 147.385 160.648 147.683 161.48C147.993 162.301 148.441 162.963 149.027 163.464C149.625 163.955 150.339 164.2 151.171 164.2C152.323 164.2 153.081 163.928 153.443 163.384L153.955 162.056H154.883V164.488C154.713 164.499 154.43 164.568 154.035 164.696C153.534 164.856 153.038 164.984 152.547 165.08C152.067 165.176 151.507 165.224 150.867 165.224C149.747 165.224 148.75 164.979 147.875 164.488C147.001 163.997 146.318 163.309 145.827 162.424C145.337 161.528 145.091 160.499 145.091 159.336C145.091 158.067 145.385 156.931 145.971 155.928C146.558 154.925 147.347 154.147 148.339 153.592C149.342 153.037 150.43 152.76 151.603 152.76ZM156.859 163.912L160.843 152.872H162.635L166.459 163.912L167.691 164.184V165H163.115V164.184L164.315 163.912L163.675 161.88H159.163L158.491 163.896L159.739 164.168V165H155.771V164.168L156.859 163.912ZM162.139 157.064L161.451 154.776L159.515 160.76H163.307L162.139 157.064ZM172.704 165.192C172 165.192 171.274 165.123 170.528 164.984C169.792 164.845 169.269 164.691 168.96 164.52V161.768H169.824L170.416 163.432C170.682 163.741 171.018 163.955 171.424 164.072C171.84 164.189 172.314 164.248 172.848 164.248C173.456 164.248 173.968 164.083 174.384 163.752C174.81 163.421 175.024 162.941 175.024 162.312C175.024 161.811 174.81 161.368 174.384 160.984C173.968 160.589 173.36 160.168 172.56 159.72C171.76 159.293 171.12 158.915 170.64 158.584C170.16 158.253 169.765 157.869 169.456 157.432C169.146 156.984 168.992 156.467 168.992 155.88C168.992 155.208 169.184 154.637 169.568 154.168C169.962 153.699 170.458 153.347 171.056 153.112C171.664 152.877 172.282 152.76 172.912 152.76C173.552 152.76 174.186 152.819 174.816 152.936C175.456 153.053 175.92 153.187 176.208 153.336V155.672H175.296L174.656 154.12C174.496 153.981 174.25 153.875 173.92 153.8C173.6 153.715 173.269 153.672 172.928 153.672C172.394 153.672 171.914 153.816 171.488 154.104C171.061 154.381 170.848 154.808 170.848 155.384C170.848 155.949 171.077 156.435 171.536 156.84C172.005 157.245 172.714 157.699 173.664 158.2C174.346 158.563 174.917 158.904 175.376 159.224C175.834 159.544 176.213 159.923 176.512 160.36C176.81 160.787 176.96 161.277 176.96 161.832C176.96 162.931 176.554 163.768 175.744 164.344C174.944 164.909 173.93 165.192 172.704 165.192ZM179.8 163.912V153.976L178.584 153.832V152.872H186.968L187.192 155.256H186.072L185.576 153.976L181.784 153.848V158.232L184.36 158.152L184.664 156.952H185.688V160.472H184.664L184.36 159.272L181.784 159.224V164.008L185.976 163.832L186.84 162.248L187.896 162.472L187.528 165H178.552V164.168L179.8 163.912ZM193.341 165.192C192.637 165.192 191.912 165.123 191.165 164.984C190.429 164.845 189.907 164.691 189.597 164.52V161.768H190.461L191.053 163.432C191.32 163.741 191.656 163.955 192.061 164.072C192.477 164.189 192.952 164.248 193.485 164.248C194.093 164.248 194.605 164.083 195.021 163.752C195.448 163.421 195.661 162.941 195.661 162.312C195.661 161.811 195.448 161.368 195.021 160.984C194.605 160.589 193.997 160.168 193.197 159.72C192.397 159.293 191.757 158.915 191.277 158.584C190.797 158.253 190.403 157.869 190.093 157.432C189.784 156.984 189.629 156.467 189.629 155.88C189.629 155.208 189.821 154.637 190.205 154.168C190.6 153.699 191.096 153.347 191.693 153.112C192.301 152.877 192.92 152.76 193.549 152.76C194.189 152.76 194.824 152.819 195.453 152.936C196.093 153.053 196.557 153.187 196.845 153.336V155.672H195.933L195.293 154.12C195.133 153.981 194.888 153.875 194.557 153.8C194.237 153.715 193.907 153.672 193.565 153.672C193.032 153.672 192.552 153.816 192.125 154.104C191.699 154.381 191.485 154.808 191.485 155.384C191.485 155.949 191.715 156.435 192.173 156.84C192.643 157.245 193.352 157.699 194.301 158.2C194.984 158.563 195.555 158.904 196.013 159.224C196.472 159.544 196.851 159.923 197.149 160.36C197.448 160.787 197.597 161.277 197.597 161.832C197.597 162.931 197.192 163.768 196.381 164.344C195.581 164.909 194.568 165.192 193.341 165.192Z" fill="#737373"/>
<defs>
<clipPath id="clip0_965_133">
<rect width="43" height="36" fill="white" transform="translate(94 36)"/>
</clipPath>
</defs>
</svg>
