<svg width="230" height="202" viewBox="0 0 230 202" fill="none" xmlns="http://www.w3.org/2000/svg">
<rect width="230" height="202" fill="white"/>
<g clip-path="url(#clip0_965_126)">
<path d="M108.29 40.4766H100.597C99.8847 40.4766 99.3076 41.0536 99.3076 41.7656C99.3076 42.4776 99.8847 43.0547 100.597 43.0547H108.29C109.002 43.0547 109.579 42.4776 109.579 41.7656C109.579 41.0536 109.002 40.4766 108.29 40.4766Z" fill="#D0A144"/>
<path d="M108.29 45.6333H100.597C99.8847 45.6333 99.3076 46.2104 99.3076 46.9224C99.3076 47.6344 99.8847 48.2114 100.597 48.2114H108.29C109.002 48.2114 109.579 47.6344 109.579 46.9224C109.579 46.2104 109.002 45.6333 108.29 45.6333Z" fill="#D0A144"/>
<path d="M108.29 50.7896H100.597C99.8847 50.7896 99.3076 51.3666 99.3076 52.0786C99.3076 52.7906 99.8847 53.3677 100.597 53.3677H108.29C109.002 53.3677 109.579 52.7906 109.579 52.0786C109.579 51.3666 109.002 50.7896 108.29 50.7896Z" fill="#D0A144"/>
<path d="M108.29 55.9463H100.597C99.8847 55.9463 99.3076 56.5233 99.3076 57.2354C99.3076 57.9474 99.8847 58.5244 100.597 58.5244H108.29C109.002 58.5244 109.579 57.9474 109.579 57.2354C109.579 56.5233 109.002 55.9463 108.29 55.9463Z" fill="#D0A144"/>
<path d="M108.29 61.189H100.597C99.8847 61.189 99.3076 61.7664 99.3076 62.478C99.3076 63.19 99.8847 63.7671 100.597 63.7671H108.29C109.002 63.7671 109.579 63.19 109.579 62.478C109.579 61.7664 109.002 61.189 108.29 61.189Z" fill="#D0A144"/>
<path d="M112.619 43.0547H120.313C121.025 43.0547 121.602 42.4776 121.602 41.7656C121.602 41.0536 121.025 40.4766 120.313 40.4766H112.619C111.907 40.4766 111.33 41.0536 111.33 41.7656C111.33 42.4776 111.907 43.0547 112.619 43.0547Z" fill="#D0A144"/>
<path d="M112.619 48.2114H120.313C121.025 48.2114 121.602 47.6344 121.602 46.9224C121.602 46.2104 121.025 45.6333 120.313 45.6333H112.619C111.907 45.6333 111.33 46.2104 111.33 46.9224C111.33 47.6344 111.907 48.2114 112.619 48.2114Z" fill="#D0A144"/>
<path d="M117.614 52.0786C117.614 51.3666 117.037 50.7896 116.325 50.7896H112.619C111.907 50.7896 111.33 51.3666 111.33 52.0786C111.33 52.7906 111.907 53.3677 112.619 53.3677H116.325C117.037 53.3677 117.614 52.7906 117.614 52.0786Z" fill="#D0A144"/>
<path d="M129.825 61.7333C129.27 61.2879 128.459 61.3768 128.013 61.9321L124.693 66.0712L122.637 64.582C122.061 64.1641 121.255 64.293 120.837 64.8694C120.419 65.4461 120.548 66.2521 121.125 66.6697L124.174 68.8789C124.402 69.0441 124.667 69.1243 124.929 69.1243C125.308 69.1243 125.682 68.9581 125.935 68.6416L130.024 63.5454C130.469 62.9902 130.38 62.1788 129.825 61.7333Z" fill="#D0A144"/>
<path d="M133.083 57.7762C131.404 56.0675 129.246 54.9906 126.909 54.6734V37.1915C126.909 34.329 124.58 32 121.717 32H99.1918C96.329 32 94 34.329 94 37.1915V67.0524C94 69.9152 96.329 72.2443 99.1915 72.2443H117.309C119.347 74.6391 122.278 76 125.45 76C131.353 76 136.155 71.1942 136.155 65.287C136.155 62.4591 135.064 59.7917 133.083 57.7762ZM96.5781 67.0524V37.1915C96.5781 35.7507 97.7507 34.5781 99.1918 34.5781H121.717C123.158 34.5781 124.331 35.7507 124.331 37.1915V54.6324C118.951 55.1941 114.744 59.7578 114.744 65.287C114.744 66.8195 115.064 68.3012 115.677 69.6658H99.1918C97.7507 69.6658 96.5781 68.4936 96.5781 67.0524ZM125.45 73.4219C122.875 73.4219 120.509 72.2399 118.956 70.1794C117.887 68.7604 117.322 67.0689 117.322 65.287C117.322 60.8015 120.968 57.1522 125.45 57.1522C125.492 57.1522 125.535 57.1528 125.577 57.1535L125.597 57.1538C127.736 57.1918 129.742 58.0545 131.245 59.5833C132.749 61.1137 133.577 63.1396 133.577 65.287C133.577 69.7726 129.931 73.4219 125.45 73.4219Z" fill="#D0A144"/>
</g>
<path d="M47.74 115.92L49.22 120.08C49.8867 120.853 50.7267 121.387 51.74 121.68C52.78 121.973 53.9667 122.12 55.3 122.12C56.82 122.12 58.1 121.707 59.14 120.88C60.2067 120.053 60.74 118.853 60.74 117.28C60.74 116.027 60.2067 114.92 59.14 113.96C58.1 113 56.58 111.947 54.58 110.8C52.58 109.733 50.98 108.787 49.78 107.96C48.58 107.133 47.5933 106.173 46.82 105.08C46.0467 103.96 45.66 102.667 45.66 101.2C45.66 98.9867 46.4733 97.2267 48.1 95.92C49.7267 94.5867 51.6867 93.7733 53.98 93.48L54.06 89.92H57.58L57.46 93.48C58.74 93.56 59.9533 93.7333 61.1 94C62.2733 94.24 63.14 94.52 63.7 94.84V100.68H61.46L59.82 96.8C59.4467 96.4533 58.8333 96.1867 57.98 96C57.1267 95.7867 56.2867 95.68 55.46 95.68C54.1533 95.68 52.9667 96.0267 51.9 96.72C50.86 97.4133 50.3267 98.4933 50.3 99.96C50.3 101.293 50.8333 102.467 51.9 103.48C52.9933 104.467 54.54 105.493 56.54 106.56C58.7 107.733 60.3533 108.707 61.5 109.48C62.6467 110.253 63.6067 111.187 64.38 112.28C65.18 113.373 65.58 114.64 65.58 116.08C65.58 118.64 64.6867 120.64 62.9 122.08C61.14 123.493 58.8733 124.28 56.1 124.44L55.9 128.6H52.34L52.5 124.36C51.0867 124.253 49.7133 124.053 48.38 123.76C47.0733 123.44 46.14 123.12 45.58 122.8V115.92H47.74ZM75.8888 121.28V104.84L70.5288 105.68L70.0088 103.32C71.1821 102.973 72.8621 102.32 75.0488 101.36C77.2354 100.373 78.5954 99.68 79.1288 99.28L80.7688 99.6L80.6888 121.28L85.6888 121.88V124H70.4088V121.88L75.8888 121.28ZM99.8806 93.6C101.454 93.6 102.881 93.88 104.161 94.44C105.467 95 106.494 95.8 107.241 96.84C107.987 97.88 108.361 99.0933 108.361 100.48C108.361 101.92 107.841 103.4 106.801 104.92C105.761 106.44 104.507 107.547 103.041 108.24C105.147 109.547 106.774 110.813 107.921 112.04C109.094 113.267 109.681 114.627 109.681 116.12C109.681 117.96 109.201 119.52 108.241 120.8C107.307 122.053 106.081 122.987 104.561 123.6C103.041 124.213 101.401 124.52 99.6406 124.52C97.8806 124.52 96.214 124.24 94.6406 123.68C93.0673 123.093 91.7873 122.213 90.8006 121.04C89.8406 119.867 89.3606 118.427 89.3606 116.72C89.3606 115.147 89.9073 113.64 91.0006 112.2C92.094 110.76 93.614 109.6 95.5606 108.72C94.0673 107.653 92.9073 106.52 92.0806 105.32C91.254 104.12 90.8406 102.747 90.8406 101.2C90.8406 99.5733 91.254 98.1867 92.0806 97.04C92.934 95.8933 94.054 95.04 95.4406 94.48C96.8273 93.8933 98.3073 93.6 99.8806 93.6ZM99.6406 95.8C98.3873 95.8 97.2806 96.2133 96.3206 97.04C95.3606 97.8667 94.8806 98.92 94.8806 100.2C94.8806 101.373 95.4006 102.48 96.4406 103.52C97.4806 104.56 98.934 105.653 100.801 106.8C101.814 106.373 102.641 105.627 103.281 104.56C103.947 103.493 104.281 102.36 104.281 101.16C104.281 99.6133 103.827 98.3333 102.921 97.32C102.041 96.3067 100.947 95.8 99.6406 95.8ZM97.6406 110.08C96.5473 110.693 95.6406 111.48 94.9206 112.44C94.2273 113.4 93.8806 114.427 93.8806 115.52C93.8806 116.747 94.134 117.867 94.6406 118.88C95.1473 119.893 95.8806 120.707 96.8406 121.32C97.8006 121.907 98.9073 122.2 100.161 122.2C101.041 122.2 101.867 122 102.641 121.6C103.414 121.2 104.027 120.64 104.481 119.92C104.961 119.2 105.201 118.373 105.201 117.44C105.201 116.56 104.921 115.76 104.361 115.04C103.827 114.293 103.147 113.64 102.321 113.08C101.521 112.493 100.414 111.773 99.0006 110.92L97.6406 110.08ZM125.649 99.56C129.196 99.56 131.809 100.653 133.489 102.84C135.169 105 136.009 107.947 136.009 111.68C136.009 114.107 135.516 116.307 134.529 118.28C133.569 120.227 132.249 121.76 130.569 122.88C128.889 123.973 127.036 124.52 125.009 124.52C122.662 124.52 120.676 123.96 119.049 122.84C117.449 121.693 116.249 120.173 115.449 118.28C114.676 116.36 114.289 114.227 114.289 111.88C114.289 109.453 114.796 107.307 115.809 105.44C116.849 103.547 118.236 102.093 119.969 101.08C121.702 100.067 123.596 99.56 125.649 99.56ZM124.969 101.96C123.022 101.96 121.636 102.773 120.809 104.4C120.009 106.027 119.609 108.36 119.609 111.4C119.609 113.16 119.822 114.867 120.249 116.52C120.676 118.147 121.302 119.48 122.129 120.52C122.982 121.56 124.022 122.093 125.249 122.12C127.249 122.173 128.649 121.333 129.449 119.6C130.249 117.867 130.649 115.347 130.649 112.04C130.649 109.08 130.182 106.667 129.249 104.8C128.316 102.907 126.889 101.96 124.969 101.96ZM152.401 121.28L154.121 96.72L150.401 96.36V93.68H160.961L167.121 112.84L167.921 116.12L168.801 112.8L174.681 93.68H184.401V96.36L180.761 96.72L182.881 121.28L186.121 121.96V124H174.961V121.96L178.201 121.28L176.761 104.24L176.641 97.04L175.881 100.08L168.121 124.32H166.361L159.241 103.72C158.601 101.88 157.867 99.6267 157.041 96.96L156.921 103.16L156.081 121.24L159.761 121.92V124H149.041V121.92L152.401 121.28Z" fill="#252B42"/>
<path d="M69.1899 152.76C70.5446 152.76 71.6006 153.005 72.3579 153.496C73.1259 153.987 73.5099 154.808 73.5099 155.96C73.5099 156.813 73.2806 157.549 72.8219 158.168C72.3633 158.776 71.7233 159.219 70.9019 159.496C70.9339 159.507 71.0193 159.555 71.1579 159.64C71.4779 159.843 71.7713 160.147 72.0379 160.552C72.3153 160.957 72.6566 161.517 73.0619 162.232C73.3606 162.765 73.6006 163.171 73.7819 163.448C73.9633 163.715 74.1339 163.875 74.2939 163.928L75.2059 164.168V165H72.5659C72.3953 165 72.2139 164.84 72.0219 164.52C71.8299 164.189 71.5739 163.672 71.2539 162.968C70.8059 161.976 70.4006 161.203 70.0379 160.648C69.6859 160.093 69.3019 159.816 68.8859 159.816L67.7019 159.832V163.912L69.2859 164.168V165H64.2939V164.168L65.7179 163.912V154.056L64.4699 153.912V152.872H66.4219C66.6459 152.872 66.8593 152.867 67.0619 152.856C67.2646 152.845 67.4513 152.835 67.6219 152.824C68.2833 152.781 68.8059 152.76 69.1899 152.76ZM68.9179 153.752C68.8326 153.763 68.7153 153.768 68.5659 153.768C68.1393 153.789 67.8513 153.827 67.7019 153.88V158.808C67.9473 158.84 68.3366 158.856 68.8699 158.856C69.7446 158.856 70.4059 158.648 70.8539 158.232C71.3019 157.805 71.5259 157.123 71.5259 156.184C71.5259 155.395 71.3126 154.787 70.8859 154.36C70.4699 153.933 69.8139 153.731 68.9179 153.752ZM77.2089 163.912V153.976L75.9929 153.832V152.872H84.3769L84.6009 155.256H83.4809L82.9849 153.976L79.1929 153.848V158.232L81.7689 158.152L82.0729 156.952H83.0969V160.472H82.0729L81.7689 159.272L79.1929 159.224V164.008L83.3849 163.832L84.2489 162.248L85.3049 162.472L84.9369 165H75.9609V164.168L77.2089 163.912ZM92.9907 152.76C93.5347 152.76 94.0307 152.803 94.4787 152.888C94.9267 152.973 95.3907 153.08 95.8707 153.208L96.2547 153.304L96.1107 155.832H95.0067L94.5267 154.44C94.2707 154.237 93.988 154.093 93.6787 154.008C93.38 153.912 92.9534 153.864 92.3987 153.864C91.684 153.864 91.0387 154.067 90.4627 154.472C89.8974 154.877 89.4494 155.453 89.1187 156.2C88.788 156.936 88.6227 157.795 88.6227 158.776C88.6227 159.747 88.772 160.648 89.0707 161.48C89.38 162.301 89.828 162.963 90.4147 163.464C91.012 163.955 91.7267 164.2 92.5587 164.2C93.7107 164.2 94.468 163.928 94.8307 163.384L95.3427 162.056H96.2707V164.488C96.1 164.499 95.8174 164.568 95.4227 164.696C94.9214 164.856 94.4254 164.984 93.9347 165.08C93.4547 165.176 92.8947 165.224 92.2547 165.224C91.1347 165.224 90.1374 164.979 89.2627 164.488C88.388 163.997 87.7054 163.309 87.2147 162.424C86.724 161.528 86.4787 160.499 86.4787 159.336C86.4787 158.067 86.772 156.931 87.3587 155.928C87.9454 154.925 88.7347 154.147 89.7267 153.592C90.7294 153.037 91.8174 152.76 92.9907 152.76ZM103.59 152.76C104.636 152.76 105.553 153.016 106.342 153.528C107.132 154.04 107.74 154.744 108.166 155.64C108.593 156.536 108.806 157.549 108.806 158.68C108.806 159.992 108.561 161.144 108.07 162.136C107.59 163.117 106.924 163.88 106.07 164.424C105.217 164.957 104.257 165.224 103.19 165.224C102.124 165.224 101.18 164.968 100.358 164.456C99.5369 163.944 98.9022 163.24 98.4542 162.344C98.0062 161.437 97.7822 160.413 97.7822 159.272C97.7822 157.992 98.0382 156.856 98.5502 155.864C99.0729 154.872 99.7662 154.115 100.63 153.592C101.548 153.037 102.534 152.76 103.59 152.76ZM103.35 153.752C102.241 153.752 101.398 154.232 100.822 155.192C100.257 156.141 99.9742 157.448 99.9742 159.112C99.9742 159.987 100.108 160.819 100.374 161.608C100.652 162.387 101.046 163.021 101.558 163.512C102.07 163.992 102.678 164.232 103.382 164.232C104.481 164.232 105.292 163.763 105.814 162.824C106.348 161.875 106.614 160.552 106.614 158.856C106.614 157.928 106.481 157.075 106.214 156.296C105.958 155.517 105.58 154.899 105.078 154.44C104.588 153.981 104.012 153.752 103.35 153.752ZM109.556 153.832V152.872H114.132V153.816L112.772 153.976L115.06 161.192L115.588 163.048L116.068 161.192L118.132 153.976L116.868 153.832V152.872H120.756V153.832L119.828 153.96L116.116 165.144H114.596L110.548 153.96L109.556 153.832ZM122.984 163.912V153.976L121.768 153.832V152.872H130.152L130.376 155.256H129.256L128.76 153.976L124.968 153.848V158.232L127.544 158.152L127.848 156.952H128.872V160.472H127.848L127.544 159.272L124.968 159.224V164.008L129.16 163.832L130.024 162.248L131.08 162.472L130.712 165H121.736V164.168L122.984 163.912ZM137.134 152.76C138.488 152.76 139.544 153.005 140.302 153.496C141.07 153.987 141.454 154.808 141.454 155.96C141.454 156.813 141.224 157.549 140.766 158.168C140.307 158.776 139.667 159.219 138.846 159.496C138.878 159.507 138.963 159.555 139.102 159.64C139.422 159.843 139.715 160.147 139.982 160.552C140.259 160.957 140.6 161.517 141.006 162.232C141.304 162.765 141.544 163.171 141.726 163.448C141.907 163.715 142.078 163.875 142.238 163.928L143.15 164.168V165H140.51C140.339 165 140.158 164.84 139.966 164.52C139.774 164.189 139.518 163.672 139.198 162.968C138.75 161.976 138.344 161.203 137.982 160.648C137.63 160.093 137.246 159.816 136.83 159.816L135.646 159.832V163.912L137.23 164.168V165H132.238V164.168L133.662 163.912V154.056L132.414 153.912V152.872H134.366C134.59 152.872 134.803 152.867 135.006 152.856C135.208 152.845 135.395 152.835 135.566 152.824C136.227 152.781 136.75 152.76 137.134 152.76ZM136.862 153.752C136.776 153.763 136.659 153.768 136.51 153.768C136.083 153.789 135.795 153.827 135.646 153.88V158.808C135.891 158.84 136.28 158.856 136.814 158.856C137.688 158.856 138.35 158.648 138.798 158.232C139.246 157.805 139.47 157.123 139.47 156.184C139.47 155.395 139.256 154.787 138.83 154.36C138.414 153.933 137.758 153.731 136.862 153.752ZM145.153 163.912V153.976L143.937 153.832V152.872H152.321L152.545 155.256H151.425L150.929 153.976L147.137 153.848V158.232L149.713 158.152L150.017 156.952H151.041V160.472H150.017L149.713 159.272L147.137 159.224V164.008L151.329 163.832L152.193 162.248L153.249 162.472L152.881 165H143.905V164.168L145.153 163.912ZM155.83 163.912V153.976L154.614 153.832V152.872H156.854C157.281 152.872 157.804 152.851 158.422 152.808C158.561 152.797 158.764 152.787 159.03 152.776C159.297 152.765 159.542 152.76 159.766 152.76C161.718 152.76 163.19 153.267 164.182 154.28C165.174 155.293 165.67 156.733 165.67 158.6C165.67 159.912 165.409 161.059 164.886 162.04C164.364 163.021 163.638 163.773 162.71 164.296C161.793 164.819 160.742 165.08 159.558 165.08C159.302 165.08 158.908 165.069 158.374 165.048C157.916 165.016 157.42 165 156.886 165H154.582V164.168L155.83 163.912ZM157.814 163.832C158.252 164.003 158.79 164.088 159.43 164.088C159.622 164.088 159.772 164.083 159.878 164.072C160.582 164.04 161.212 163.821 161.766 163.416C162.332 163 162.774 162.419 163.094 161.672C163.414 160.925 163.574 160.056 163.574 159.064C163.574 157.325 163.217 156.013 162.502 155.128C161.798 154.232 160.79 153.784 159.478 153.784C158.796 153.784 158.241 153.837 157.814 153.944V163.832Z" fill="#737373"/>
<defs>
<clipPath id="clip0_965_126">
<rect width="42.1953" height="44" fill="white" transform="translate(94 32)"/>
</clipPath>
</defs>
</svg>
