<svg width="231" height="202" viewBox="0 0 231 202" fill="none" xmlns="http://www.w3.org/2000/svg">
<rect width="230" height="202" transform="translate(0.5)" fill="white"/>
<g clip-path="url(#clip0_965_140)">
<path d="M104.121 46.9828C103.786 46.6477 103.241 46.6477 102.906 46.9828C102.57 47.3188 102.57 47.8628 102.906 48.198C103.241 48.534 103.786 48.534 104.121 48.198C104.457 47.8628 104.457 47.3188 104.121 46.9828Z" fill="#D0A144"/>
<path d="M115.759 70.4759C116.138 69.9627 116.343 69.3444 116.343 68.6942C116.343 67.0358 114.994 65.6865 113.335 65.6865H98.7264C97.9226 65.6865 97.1673 65.9993 96.5995 66.5673C96.0315 67.1352 95.7187 67.8905 95.7187 68.6942C95.7187 69.3602 95.9366 69.976 96.3043 70.4749C94.9359 71.1943 94 72.6295 94 74.2799V75.1393C94 75.6139 94.3848 75.9987 94.8594 75.9987H117.202C117.677 75.9987 118.062 75.6139 118.062 75.1393V74.2799C118.062 72.6303 117.127 71.1957 115.759 70.4759ZM97.8148 67.7825C98.0581 67.5391 98.3819 67.4051 98.7264 67.4051H113.335C114.046 67.4051 114.624 67.9834 114.624 68.6941C114.624 69.0387 114.49 69.3624 114.247 69.6058C114.003 69.8492 113.68 69.9831 113.335 69.9831H98.7264C98.0156 69.9831 97.4374 69.4049 97.4374 68.6942C97.4374 68.3496 97.5714 68.0258 97.8148 67.7825ZM95.7187 74.2799C95.7187 72.8584 96.8752 71.7019 98.2967 71.7019H98.7264H113.335H113.765C115.186 71.7019 116.343 72.8584 116.343 74.2799H95.7187Z" fill="#D0A144"/>
<path d="M137.2 68.1043C136.908 67.652 136.56 67.2521 136.165 66.9155L132.15 63.4133C132.118 63.3662 132.082 63.3216 132.041 63.28C131.971 63.2104 131.892 63.156 131.808 63.1152L129.38 60.9973L118.14 51.1926C118.6 50.7116 118.853 50.0826 118.853 49.4138C118.853 48.7247 118.585 48.0772 118.097 47.5897C117.885 47.3774 117.643 47.2104 117.385 47.0881L118.425 46.0483C118.715 46.1255 119.014 46.1651 119.313 46.1651C120.193 46.165 121.073 45.83 121.743 45.16C122.393 44.5106 122.75 43.6474 122.75 42.7293C122.75 41.8112 122.393 40.948 121.743 40.2986L114.452 33.0071C113.802 32.3577 112.939 32 112.021 32C111.103 32 110.24 32.3577 109.59 33.0071C108.693 33.9046 108.397 35.179 108.702 36.3256L98.3272 46.7003C98.0405 46.6241 97.7422 46.5839 97.4375 46.5839C96.519 46.5839 95.6561 46.9413 95.0072 47.5901C93.6669 48.9304 93.6669 51.1112 95.0072 52.4516L102.299 59.7432C102.969 60.4133 103.849 60.7484 104.729 60.7484C105.61 60.7484 106.49 60.4133 107.16 59.7432C108.058 58.8456 108.353 57.5713 108.049 56.4247L109.086 55.3869C109.211 55.6473 109.38 55.8876 109.59 56.0977C110.077 56.5847 110.725 56.8529 111.413 56.8529C112.082 56.8529 112.71 56.6 113.192 56.1404L125.164 69.895C125.197 69.9466 125.235 69.9956 125.28 70.0407C125.296 70.056 125.312 70.0701 125.328 70.084L128.896 74.1827C128.984 74.2873 129.079 74.3903 129.177 74.4887C130.157 75.4681 131.451 75.9997 132.81 75.9997C133.049 75.9997 133.291 75.9832 133.533 75.9496C135.151 75.7257 136.55 74.7577 137.37 73.2935C138.268 71.6888 138.201 69.6515 137.2 68.1043ZM110.806 34.2224C111.13 33.8977 111.562 33.7188 112.021 33.7188C112.48 33.7188 112.912 33.8977 113.236 34.2224L120.528 41.514C120.853 41.8387 121.032 42.2704 121.032 42.7294C121.032 43.1884 120.853 43.62 120.528 43.9448C119.858 44.6149 118.768 44.6149 118.098 43.9448L110.806 36.6529C110.806 36.6527 110.806 36.6527 110.806 36.6525C110.136 35.9825 110.136 34.8924 110.806 34.2224ZM105.945 58.5279C105.275 59.198 104.184 59.1981 103.514 58.5279L96.2225 51.2363C95.5523 50.5661 95.5523 49.4757 96.2225 48.8054C96.5466 48.4812 96.9782 48.3026 97.4375 48.3026C97.8966 48.3026 98.328 48.4811 98.652 48.8051L105.945 56.0979C106.615 56.7678 106.615 57.858 105.945 58.5279ZM109.563 52.4796L107.16 54.8826L99.8679 47.5903L109.59 37.8677L116.882 45.16L114.475 47.5674C114.467 47.5748 114.46 47.582 114.451 47.5902L109.593 52.449C109.583 52.4589 109.573 52.4692 109.563 52.4796ZM112.632 54.2723C112.63 54.2741 112.628 54.2757 112.626 54.2774L112.021 54.8826C111.859 55.0448 111.643 55.1342 111.413 55.1342C111.184 55.1342 110.968 55.0448 110.806 54.8825C110.643 54.7201 110.554 54.504 110.554 54.2741C110.554 54.0492 110.639 53.8375 110.795 53.6778L115.677 48.7965C116.011 48.4711 116.552 48.4752 116.883 48.8054C117.045 48.9678 117.135 49.1839 117.135 49.4138C117.135 49.6435 117.045 49.8589 116.883 50.0213L116.281 50.6229C116.277 50.627 116.273 50.6311 116.269 50.6352L112.632 54.2723ZM114.411 54.9233L116.923 52.4117L127.557 61.6874L123.676 65.5679L114.411 54.9233ZM124.807 66.8674L128.855 62.8198L130.153 63.9522L125.938 68.1671L124.807 66.8674ZM135.87 72.4539C135.316 73.4441 134.378 74.0977 133.298 74.2472C132.22 74.3964 131.161 74.0414 130.392 73.2733C130.326 73.2073 130.263 73.1385 130.204 73.0687C130.201 73.0654 130.199 73.0621 130.196 73.059L127.069 69.4666L131.451 65.0845L135.039 68.2141C135.042 68.2165 135.045 68.2188 135.048 68.2212C135.316 68.4495 135.554 68.7238 135.757 69.0371C136.407 70.0413 136.452 71.4145 135.87 72.4539Z" fill="#D0A144"/>
<path d="M110.198 40.906C109.862 40.5704 109.318 40.5704 108.983 40.906L105.337 44.5521C105.001 44.8877 105.001 45.4319 105.337 45.7674C105.504 45.9352 105.724 46.0191 105.944 46.0191C106.164 46.0191 106.384 45.9351 106.552 45.7674L110.198 42.1212C110.534 41.7857 110.534 41.2417 110.198 40.906Z" fill="#D0A144"/>
</g>
<path d="M80.72 121.28V104.84L75.36 105.68L74.84 103.32C76.0133 102.973 77.6933 102.32 79.88 101.36C82.0667 100.373 83.4267 99.68 83.96 99.28L85.6 99.6L85.52 121.28L90.52 121.88V124H75.24V121.88L80.72 121.28ZM105.632 99.56C109.179 99.56 111.792 100.653 113.472 102.84C115.152 105 115.992 107.947 115.992 111.68C115.992 114.107 115.499 116.307 114.512 118.28C113.552 120.227 112.232 121.76 110.552 122.88C108.872 123.973 107.019 124.52 104.992 124.52C102.645 124.52 100.659 123.96 99.0319 122.84C97.4319 121.693 96.2319 120.173 95.4319 118.28C94.6585 116.36 94.2719 114.227 94.2719 111.88C94.2719 109.453 94.7785 107.307 95.7919 105.44C96.8319 103.547 98.2185 102.093 99.9519 101.08C101.685 100.067 103.579 99.56 105.632 99.56ZM104.952 101.96C103.005 101.96 101.619 102.773 100.792 104.4C99.9919 106.027 99.5919 108.36 99.5919 111.4C99.5919 113.16 99.8052 114.867 100.232 116.52C100.659 118.147 101.285 119.48 102.112 120.52C102.965 121.56 104.005 122.093 105.232 122.12C107.232 122.173 108.632 121.333 109.432 119.6C110.232 117.867 110.632 115.347 110.632 112.04C110.632 109.08 110.165 106.667 109.232 104.8C108.299 102.907 106.872 101.96 104.952 101.96ZM125.037 118.24C126.531 118.667 127.664 119.547 128.437 120.88C129.211 122.213 129.597 123.613 129.597 125.08C129.571 127.293 128.917 129.227 127.637 130.88C126.357 132.533 124.771 133.707 122.877 134.4L121.757 133.16V132.44C122.744 132.093 123.557 131.4 124.197 130.36C124.864 129.32 125.197 128.187 125.197 126.96C125.197 126 124.891 125.12 124.277 124.32C123.691 123.52 122.997 123.093 122.197 123.04V121.92L125.037 118.24ZM153.459 96.04C150.925 96.7867 148.672 97.96 146.699 99.56C144.725 101.16 143.165 103 142.019 105.08C140.899 107.133 140.325 109.187 140.299 111.24C140.219 114.493 140.592 117.12 141.419 119.12C142.245 121.093 143.792 122.08 146.059 122.08C147.712 122.08 148.965 121.387 149.819 120C150.699 118.613 151.139 116.973 151.139 115.08C151.139 113.027 150.712 111.373 149.859 110.12C149.005 108.867 147.899 108.24 146.539 108.24C145.739 108.24 145.099 108.32 144.619 108.48C144.139 108.64 143.659 108.867 143.179 109.16L142.259 107.52C142.632 106.88 143.419 106.32 144.619 105.84C145.819 105.333 147.019 105.08 148.219 105.08C149.845 105.08 151.232 105.48 152.379 106.28C153.525 107.053 154.392 108.093 154.979 109.4C155.565 110.707 155.859 112.12 155.859 113.64C155.859 115.507 155.419 117.28 154.539 118.96C153.685 120.613 152.459 121.947 150.859 122.96C149.285 123.947 147.459 124.44 145.379 124.44C143.352 124.44 141.565 123.933 140.019 122.92C138.499 121.907 137.312 120.547 136.459 118.84C135.632 117.107 135.219 115.187 135.219 113.08C135.219 109.907 136.032 106.96 137.659 104.24C139.312 101.493 141.459 99.2133 144.099 97.4C146.765 95.5867 149.525 94.4267 152.379 93.92L153.459 96.04Z" fill="#252B42"/>
<path d="M58.6558 163.912V153.976L57.2318 153.832V152.872H61.9998V153.832L60.6398 153.976V163.912L62.0958 164.168V165H57.2158V164.168L58.6558 163.912ZM75.4069 153.928L74.1909 154.072V165H72.0469L67.2309 157.24L66.2389 155.08L66.2549 163.896L67.7909 164.168V165H63.5829V164.168L64.8789 163.896V154.088L63.6309 153.944V152.872H66.8469L71.8709 161.272L72.8149 163.304V154.088L71.5029 153.928V152.872H75.4069V153.928ZM81.3363 153.832L80.1363 153.976V160.712C80.1363 161.715 80.1203 162.541 80.0883 163.192C80.0563 163.843 79.9869 164.397 79.8803 164.856C79.7096 165.475 79.4056 166.013 78.9683 166.472C78.5309 166.941 78.0296 167.309 77.4643 167.576C76.8989 167.843 76.3336 168.003 75.7683 168.056L75.3203 167.432C76.5683 166.995 77.3843 166.328 77.7683 165.432C77.9176 164.995 78.0136 164.509 78.0563 163.976C78.1096 163.443 78.1363 162.733 78.1363 161.848V153.976L76.8883 153.832V152.872H81.3363V153.832ZM94.1448 153.832L92.9448 153.992V159.688C92.9448 161.523 92.5501 162.904 91.7608 163.832C90.9714 164.76 89.8514 165.224 88.4008 165.224C86.6728 165.224 85.4141 164.787 84.6248 163.912C83.8461 163.037 83.4568 161.709 83.4568 159.928L83.4888 153.976L82.2408 153.832V152.872H86.8328V153.832L85.4568 153.992V159.992C85.4568 161.475 85.7341 162.547 86.2888 163.208C86.8434 163.869 87.6434 164.2 88.6888 164.2C90.6088 164.2 91.5688 162.696 91.5688 159.688L91.5528 153.992L90.1768 153.832V152.872H94.1448V153.832ZM99.9946 152.76C101.349 152.76 102.405 153.005 103.163 153.496C103.931 153.987 104.315 154.808 104.315 155.96C104.315 156.813 104.085 157.549 103.627 158.168C103.168 158.776 102.528 159.219 101.707 159.496C101.739 159.507 101.824 159.555 101.963 159.64C102.283 159.843 102.576 160.147 102.843 160.552C103.12 160.957 103.461 161.517 103.867 162.232C104.165 162.765 104.405 163.171 104.587 163.448C104.768 163.715 104.939 163.875 105.099 163.928L106.011 164.168V165H103.371C103.2 165 103.019 164.84 102.827 164.52C102.635 164.189 102.379 163.672 102.059 162.968C101.611 161.976 101.205 161.203 100.843 160.648C100.491 160.093 100.107 159.816 99.6906 159.816L98.5066 159.832V163.912L100.091 164.168V165H95.0986V164.168L96.5226 163.912V154.056L95.2746 153.912V152.872H97.2266C97.4506 152.872 97.664 152.867 97.8666 152.856C98.0693 152.845 98.256 152.835 98.4266 152.824C99.088 152.781 99.6106 152.76 99.9946 152.76ZM99.7226 153.752C99.6373 153.763 99.52 153.768 99.3706 153.768C98.944 153.789 98.656 153.827 98.5066 153.88V158.808C98.752 158.84 99.1413 158.856 99.6746 158.856C100.549 158.856 101.211 158.648 101.659 158.232C102.107 157.805 102.331 157.123 102.331 156.184C102.331 155.395 102.117 154.787 101.691 154.36C101.275 153.933 100.619 153.731 99.7226 153.752ZM110.654 163.896V160.36L106.942 153.96L106.062 153.832V152.872H110.302V153.816L109.23 153.96L111.518 158.392L111.854 159.176L112.174 158.36L114.19 153.992L112.894 153.832V152.872H116.782V153.832L115.758 154.072L112.622 160.28V163.88L114.462 164.168V165H108.942V164.168L110.654 163.896ZM127.77 152.76C128.314 152.76 128.81 152.803 129.258 152.888C129.706 152.973 130.17 153.08 130.65 153.208L131.034 153.304L130.89 155.832H129.786L129.306 154.44C129.05 154.237 128.768 154.093 128.458 154.008C128.16 153.912 127.733 153.864 127.178 153.864C126.464 153.864 125.818 154.067 125.242 154.472C124.677 154.877 124.229 155.453 123.898 156.2C123.568 156.936 123.402 157.795 123.402 158.776C123.402 159.747 123.552 160.648 123.85 161.48C124.16 162.301 124.608 162.963 125.194 163.464C125.792 163.955 126.506 164.2 127.338 164.2C128.49 164.2 129.248 163.928 129.61 163.384L130.122 162.056H131.05V164.488C130.88 164.499 130.597 164.568 130.202 164.696C129.701 164.856 129.205 164.984 128.714 165.08C128.234 165.176 127.674 165.224 127.034 165.224C125.914 165.224 124.917 164.979 124.042 164.488C123.168 163.997 122.485 163.309 121.994 162.424C121.504 161.528 121.258 160.499 121.258 159.336C121.258 158.067 121.552 156.931 122.138 155.928C122.725 154.925 123.514 154.147 124.506 153.592C125.509 153.037 126.597 152.76 127.77 152.76ZM133.026 163.912L137.01 152.872H138.802L142.626 163.912L143.858 164.184V165H139.282V164.184L140.482 163.912L139.842 161.88H135.33L134.658 163.896L135.906 164.168V165H131.938V164.168L133.026 163.912ZM138.306 157.064L137.618 154.776L135.682 160.76H139.474L138.306 157.064ZM148.871 165.192C148.167 165.192 147.442 165.123 146.695 164.984C145.959 164.845 145.436 164.691 145.127 164.52V161.768H145.991L146.583 163.432C146.85 163.741 147.186 163.955 147.591 164.072C148.007 164.189 148.482 164.248 149.015 164.248C149.623 164.248 150.135 164.083 150.551 163.752C150.978 163.421 151.191 162.941 151.191 162.312C151.191 161.811 150.978 161.368 150.551 160.984C150.135 160.589 149.527 160.168 148.727 159.72C147.927 159.293 147.287 158.915 146.807 158.584C146.327 158.253 145.932 157.869 145.623 157.432C145.314 156.984 145.159 156.467 145.159 155.88C145.159 155.208 145.351 154.637 145.735 154.168C146.13 153.699 146.626 153.347 147.223 153.112C147.831 152.877 148.45 152.76 149.079 152.76C149.719 152.76 150.354 152.819 150.983 152.936C151.623 153.053 152.087 153.187 152.375 153.336V155.672H151.463L150.823 154.12C150.663 153.981 150.418 153.875 150.087 153.8C149.767 153.715 149.436 153.672 149.095 153.672C148.562 153.672 148.082 153.816 147.655 154.104C147.228 154.381 147.015 154.808 147.015 155.384C147.015 155.949 147.244 156.435 147.703 156.84C148.172 157.245 148.882 157.699 149.831 158.2C150.514 158.563 151.084 158.904 151.543 159.224C152.002 159.544 152.38 159.923 152.679 160.36C152.978 160.787 153.127 161.277 153.127 161.832C153.127 162.931 152.722 163.768 151.911 164.344C151.111 164.909 150.098 165.192 148.871 165.192ZM155.967 163.912V153.976L154.751 153.832V152.872H163.135L163.359 155.256H162.239L161.743 153.976L157.951 153.848V158.232L160.527 158.152L160.831 156.952H161.855V160.472H160.831L160.527 159.272L157.951 159.224V164.008L162.143 163.832L163.007 162.248L164.063 162.472L163.695 165H154.719V164.168L155.967 163.912ZM169.509 165.192C168.805 165.192 168.079 165.123 167.333 164.984C166.597 164.845 166.074 164.691 165.765 164.52V161.768H166.629L167.221 163.432C167.487 163.741 167.823 163.955 168.229 164.072C168.645 164.189 169.119 164.248 169.653 164.248C170.261 164.248 170.773 164.083 171.189 163.752C171.615 163.421 171.829 162.941 171.829 162.312C171.829 161.811 171.615 161.368 171.189 160.984C170.773 160.589 170.165 160.168 169.365 159.72C168.565 159.293 167.925 158.915 167.445 158.584C166.965 158.253 166.57 157.869 166.261 157.432C165.951 156.984 165.797 156.467 165.797 155.88C165.797 155.208 165.989 154.637 166.373 154.168C166.767 153.699 167.263 153.347 167.861 153.112C168.469 152.877 169.087 152.76 169.717 152.76C170.357 152.76 170.991 152.819 171.621 152.936C172.261 153.053 172.725 153.187 173.013 153.336V155.672H172.101L171.461 154.12C171.301 153.981 171.055 153.875 170.725 153.8C170.405 153.715 170.074 153.672 169.733 153.672C169.199 153.672 168.719 153.816 168.293 154.104C167.866 154.381 167.653 154.808 167.653 155.384C167.653 155.949 167.882 156.435 168.341 156.84C168.81 157.245 169.519 157.699 170.469 158.2C171.151 158.563 171.722 158.904 172.181 159.224C172.639 159.544 173.018 159.923 173.317 160.36C173.615 160.787 173.765 161.277 173.765 161.832C173.765 162.931 173.359 163.768 172.549 164.344C171.749 164.909 170.735 165.192 169.509 165.192Z" fill="#737373"/>
<defs>
<clipPath id="clip0_965_140">
<rect width="44" height="44" fill="white" transform="translate(94 32)"/>
</clipPath>
</defs>
</svg>
